/* XPM */
static char *result[] = {
/* columns rows colors chars-per-pixel */
"50 50 25 1 ",
"  c red",
". c #9EBF69",
"X c #9BC069",
"o c #9DC168",
"O c #9CC069",
"+ c #9DC069",
"@ c #9CC169",
"# c #9EC169",
"$ c #9EC269",
"% c #9CC06A",
"& c #9DC06A",
"* c #9DC16A",
"= c #9DC26B",
"- c #9FC26A",
"; c #9FC56C",
": c #A1C66D",
"> c #A2C86D",
", c #A5CA6F",
"< c #A8CC70",
"1 c #A9CF71",
"2 c #A8CF72",
"3 c #A9D071",
"4 c #ABD173",
"5 c #ABD273",
"6 c None",
/* pixels */
"6666666666666o666666666666666666666666666666666666",
"66666666666$oo666666666666666666666666666666666666",
"666666666666oo666666666666666666666666666666666666",
"6666666666666o#66666666666666666666666666666666666",
"66666666666666*=6666666666666666666666666666666666",
"666666666666666*6666666666666666666666666666666666",
"666666666666666*6666666666666666666666666666666666",
"666666666666666*X666666666666666666666666666666666",
"666666666666666**666666666666666666666666666666666",
"6666666666666665**66666666666666666666666666666666",
"6666666666666666*2*6666666666666666666666666666666",
"6666666666666666*66*666666666666666666666666666666",
"6666666666666666*666*66666666666666666666666666666",
"6666666666666666*6666*6666666666666666666666666666",
"6666666666666666*66666*666666666666666666666666666",
"6666666666666666*666666*66666666666666666666666666",
"6666666666666666*666666<*6666666666666666666666666",
"6666666666666666*6666666-*666666666666666666666666",
"6666666666666666*66666666*&66666666666666666666666",
"6666666666666666*666666666*;6666666666666666666666",
"6666666666666663*6666666666*6666666666666666666666",
"666666666666666**6666666666**666666666666666666666",
"666666666666666&O66666666666**66666666666666666666",
"666666666666666*:666666666666*,6666666666666666666",
"666666666666666*6666666666666>*6666666666666666666",
"666666666666666*66666666666666**666666   666666666",
"666666666666666*666666666666666*166         666666",
"666666666666664*6666666666666666*6            6666",
"66666666666666%&666666666                      666",
"66666666666666*66666666                         66",
"66666666666666*6666666                           6",
"6666666666666+@6666666                           6",
"6666666666666*6   666                             ",
"6666       6.                                     ",
"66                                                ",
"6                                                 ",
"6                                                 ",
"                                                  ",
"                                                  ",
"                                                  ",
"                                                 6",
"                                                 6",
"                                                66",
"6                      6                        66",
"6                      66                      666",
"66                    6666                    6666",
"666                  6666666                666666",
"6666                6666666666            66666666",
"666666             6666666666666666666666666666666",
"66666666        6666666666666666666666666666666666"
};
