/* XPM */
static char *result[] = {
/* columns rows colors chars-per-pixel */
"50 50 151 2 ",
"   c #000000",
".  c #0D0A07",
"X  c #0B0A0A",
"o  c #000B03",
"O  c #110D0A",
"+  c #19120D",
"@  c #151414",
"#  c #1A191A",
"$  c #1E1711",
"%  c #201E01",
"&  c #231C15",
"*  c #301E14",
"=  c #06270D",
"-  c #003F10",
";  c #3B2415",
":  c #34291E",
">  c #392C1F",
",  c #2A2A2A",
"<  c #232323",
"1  c #3A2D20",
"2  c #323332",
"3  c #442C13",
"4  c #4C2A16",
"5  c #472717",
"6  c #4A3016",
"7  c #513519",
"8  c #5B3C1F",
"9  c #57391D",
"0  c #4D3021",
"q  c #553725",
"w  c #573826",
"e  c #593926",
"r  c #5E3D28",
"t  c #613E29",
"y  c #693724",
"u  c #004110",
"i  c #0A4A1B",
"p  c #0C571F",
"a  c #0D5A21",
"s  c #0F6125",
"d  c #126C2E",
"f  c #464221",
"g  c #4E4634",
"h  c #5B4834",
"j  c #5C533E",
"k  c #6C4927",
"l  c #684427",
"z  c #7A422C",
"x  c #704C29",
"c  c #77412B",
"v  c #75502C",
"b  c #664A3C",
"n  c #7B4E34",
"m  c #774C33",
"M  c #7E5136",
"N  c #3F4342",
"B  c #256C42",
"V  c #2D7F4E",
"C  c #434542",
"Z  c gray36",
"A  c #7A5F44",
"S  c #765D42",
"D  c #497A5D",
"F  c #7C6145",
"G  c #796D52",
"H  c gray47",
"J  c #727372",
"K  c #82452E",
"L  c #854B29",
"P  c #834830",
"I  c #865539",
"U  c #935D3E",
"Y  c #985F3F",
"T  c #AE753F",
"R  c #975F40",
"E  c #A45F4C",
"W  c #816447",
"Q  c #976041",
"!  c #996141",
"~  c #916D4B",
"^  c #9F7852",
"/  c #9B7A58",
"(  c #A66946",
")  c #A16745",
"_  c #B06F4A",
"`  c #A77E56",
"'  c #C47D53",
"]  c #1B813F",
"[  c #1B8340",
"{  c #29A45B",
"}  c #2CAF61",
"|  c #31AE62",
" . c #2EB565",
".. c #31B666",
"X. c #3DC473",
"o. c #44CD7B",
"O. c #48D27F",
"+. c #9B9306",
"@. c #FFEF0A",
"#. c #FFF30B",
"$. c #A68564",
"%. c #AF8A68",
"&. c #B28E6B",
"*. c #B5916D",
"=. c #DB8A5C",
"-. c #D6885B",
";. c #E28F5F",
":. c #C69B6F",
">. c #C49B72",
",. c #E28F60",
"<. c #E59161",
"1. c #EA9463",
"2. c #F29966",
"3. c #F99E6A",
"4. c #FCA46D",
"5. c #4BD683",
"6. c #4DD885",
"7. c #818181",
"8. c #959595",
"9. c #B7AA80",
"0. c #A0A0A0",
"q. c gray68",
"w. c #B4B4B4",
"e. c gray74",
"r. c #C4AC82",
"t. c #8FF2B7",
"y. c #D5CA98",
"u. c #E8CD9A",
"i. c #EFD29E",
"p. c #F2D59F",
"a. c #FEF68D",
"s. c #C7C2B0",
"d. c #D6D2BA",
"f. c #F3D6A1",
"g. c #F6D9A4",
"h. c #F9DDA6",
"j. c #F6DCAD",
"k. c #EEDAB5",
"l. c #F8E3BD",
"z. c #C6C6C6",
"x. c #C9C9C9",
"c. c #D3D3D3",
"v. c #DADADA",
"b. c #DDDCD0",
"n. c #FAEBCF",
"m. c #FCEDD1",
"M. c #FAF0D5",
"N. c gray88",
"B. c #EEEEEE",
"V. c #FEFEFE",
"C. c None",
/* pixels */
"C.C.C.C.C.C.C.C.C.C.C.C.C.C.C.C.C.C.C.C.C.C.C.C.C.C.C.C.C.C.C.C.C.C.C.C.C.C.C.C.C.C.C.C.C.C.C.C.C.C.",
"C.C.C.C.C.C.C.C.  C.C C.#     C.C.C.C.C.C.C.C.C.C.C.C.C.C.C.C.C.C.C.C.C.C.C.C.C.C.C.C.C.C.C.C.C.C.C.",
"C.C.C.C.C.C.C.C.# J @ C , H C.C.C.C.C.C.C.C.C.C.z z <.C.C.C.C.C.C.C.C.C.C.C.C.C.C.C.C.C.C.C.C.C.C.C.",
"C.C.C.C.C.C.C.  C C 2 C C C.C.C.C.C.C.C.C.C.C.C.5 z <.(   C.C.C.C.C.C.C.C.C.C.C.C.C.C.C.C.C.C.C.C.C.",
"C.C.C.C.C.C.X @ C N C C C C.C.C.C.C.C.C.C.C.C.C.  z <.( ( R C.C.C.C.C.C.C.C.C.C.C.C.C.C.C.C.C.C.C.C.",
"C.C.C.C.C.C.C.&.&.k.f.f.f./ C.C.C.C.C.C.C.C.C.C.  z <.( ( ) !   C.C.C.C.C.C.C.C.C.C.C.C.C.C.C.C.C.C.",
"C.C.C.C.C.C.C.&.f.f.f.%.  ) $.C.C.C.C.C.C.C.C.C.  z <.( ( ) ! ! ! C.C.C.C.C.C.C.C.C.C.C.C.C.C.C.C.C.",
"C.C.C.C.C.C.C.&.f.f.f.X V.V.z.  C.S   C.C.C.C.C.  z <.( ( ! ! ! ! !   C.C.C.C.C.C.C.C.C.C.C.C.C.C.C.",
"C.C.C.C.C.C.C.&.f.f.f.V.V.B.V.&.m.e.V.C.C.C.C.C.  z 1.( ( ! ! ! ! ! R w   C.C.C.C.C.C.C.C.C.C.C.C.C.",
"C.C.C.C.C.C.C.&.f.f.f.  V.V.x.&.f.m.V.C.C.C.C.C.  z 1.( ( ! ! ! ! ! R q   C.C.C.C.C.C.C.C.C.C.C.C.C.",
"C.C.C.C.C.C.C.` f.f.f.&.V.V.  f.f.j.  C.C.C.C.C.  z <.( ( ! ! ! ! ! ! Z   C.C.C.C.C.C.C.C.C.C.C.C.C.",
"C.C.C.C.C.C.  m.f.f.f.f.f.p.f.f.m.p.  C.C.C.C.C.C.z ,.( ( ! ! ! ! ! !     C.C.C.C.C.C.C.C.C.C.C.C.C.",
"C.C.C.C.C.C.g f.f.f.f.f.j r.f.f.m.f.  C.C.C.C.C.C.z ,.( ( ! ! ! ! ! R q   C.C.C.C.C.C.C.C.C.C.C.C.C.",
"C.C.C.C.C.C.f.f.f.f.f.y.f.f.h.f.m.f.C.C.C.C.C.C.C.z ,.( ( ! ! ! ! ! R e   C.C.C.C.C.C.C.C.C.C.C.C.C.",
"C.C.C.C.C.C.C.  &.f.f.f.m.l.f.f.f.f.C.C.C.C.C.C.C.z <.( ( ! ! ! ! Q R e C.C.C.C.C.C.C.C.C.C.C.C.C.C.",
"C.C.C.C.C.C.C.C.^ f.f.f.p.f.f.f.f.u.C.C.C.C.C.C.C.z ,.( ( ! ! ! ! Q I e C.C.C.C.C.C.C.C.C.C.C.C.C.C.",
"C.C.C.C.C.C.C.C.  f.g.  f.h.&.&.*.C.C.C.C.C.C.C.C.z <.( ( ! ! ! ! ! n e C.C.C.C.C.C.C.C.C.C.C.C.C.C.",
"C.C.C.C.C.C.C.C.  f.f.&.` b.m.m.    C.C.C.C.C.C.C.z 1.( ( Q ! ! ! ! l w C.C.C.C.C.C.C.C.C.C.C.C.C.C.",
"C.C.C.C.C.C.C.C.. &.f.&.f.f.f.f.f.m.C.C.C.C.C.C.C.z 3.( ( ! ! Q ! ! w e C.C.C.C.C.C.C.C.C.C.C.C.C.C.",
"C.C.C.C.C.C.C.C.  &.f.f.f.p.f.m.j.f.  C.C.C.C.C.C.z 1.( ( ! ! ! ! ! q e   C.C.C.C.C.C.C.C.C.C.C.C.C.",
"C.C.C.C.C.C.C.C.  &.&.f.f.f.f.f.f.f.m.C.C.C.C.C.C.z _ ( ( ! ! ! ! ! e e   C.C.C.C.C.C.C.C.C.C.C.C.C.",
"C.C.C.C.C.C.C.C.  ~ &.&.f.f.f.f.f.f.f.C.C.C.C.C.C.z q ( ( ! Q ! ! ! e e   C.C.C.C.C.C.C.C.C.C.C.C.C.",
"C.C.C.C.C.C.C.C.  ~ &.&.&.&.u.9.    C.C.C.C.C.C.C.z   ( ( ! ! ! ! ! U e   C.C.C.C.C.C.C.C.C.C.C.C.C.",
"C.C.C.C.C.C.C.  ~ ~ ~ ~ ~ ~ *.f.f.C.C.C.C.C.C.C.C.z   ( ( ! ! ! ! ! U e   C.C.C.C.C.C.C.C.C.C.C.C.C.",
"C.C.C.C.C.C.C.  &.&.&.&.&.f.f.f.f.C.C.C.C.C.C.C.C.z   ( ( ! ! ! ! ! n e   C.C.C.C.C.C.C.C.C.C.C.C.C.",
"C.C.C.C.C.C.C.  *.f.f.f.f.f.f.f.f.C.C.C.C.C.C.C.C.z . ( ( ! ! a.! ! r e . C.C.C.C.C.C.C.C.C.C.C.C.C.",
"C.C.C.C.C.C.  &.*.%.&.%.*.*.%.h &   C.C.C.C.C.C.C.z   ( ( f +   t Y q e ; C.C.C.C.C.C.C.C.C.C.C.C.C.",
"C.C.C.C.C.C...o.o.X. .s d p a ]  .6.t.C.C.C.C.  s.z   ( L #.  ! + Q q e 5 C.C.C.C.C.C.C.C.C.C.C.C.C.",
"C.C.C.C.C.   .}  .{  .} }  . .{  . .5.5.5.t.G f.&.z   ( L @.+.L ! ! e e ; C.C.C.C.C.C.C.C.C.C.C.C.C.",
"C.C.C.C.C.6.} 5.5.5.} } } {  . .{  .{ 5.6.6.f.g.  z . ( L #.M ! ! ! e e ; C.C.C.C.C.C.C.C.C.C.C.C.C.",
"C.C.C.C.C.} } 5.5. .} } } } {  .{  . . . .{ f.f.f.z * ( ( L ! ! ! ! e e ; C.C.C.C.C.C.C.C.C.C.C.C.C.",
"C.C.C.C.D } 5.5.5. .{ } } }  . ...5.6.{ {  .f.f.g.z U ( ( ( ! ! ! ! q e ; C.C.C.C.C.C.C.C.C.C.C.C.C.",
"C.C.C.C.5. .5.5.} } i a } } } 5.5.5.5.a } } f.i.f.z -.! ( ( Q ! ! Q e e ;   C.C.C.C.C.C.C.C.C.C.C.C.",
"C.C.C.C.5.} 5.5.} } = } } } } t.5.5.5.  u a %.g.f.z <.( ( ( ! ! ! ! l e ;   C.C.C.C.C.C.C.C.C.C.C.C.",
"C.C.C.C.5.} }  .} a   } } } 5.t.5.5.5.C.C.C.C.    z 4.( ( ( ! ! ! ! n w     C.C.C.C.C.C.C.C.C.C.C.C.",
"C.C.C.C.O B {  .a a u } } } t.t.5.5.5.C.C.C.C.C.C.z 4.( ( ( ! ! ! ! ! w Z   C.C.C.C.C.C.C.C.C.C.C.C.",
"C.C.C.C.C *.&.&.&.f.u  .} 5.t.5.5.5.5.  C.C.C.C.C.z 4.( ( ( ! ! ! ! ! e r   C.C.C.C.C.C.C.C.C.C.C.C.",
"C.C.C.  p.h.f.f.b   M.{ } 6.5.5.5.5.] o C.C.C.C.C.z 3.( ( ( ! ! ! ! ! e r   C.C.C.C.C.C.C.C.C.C.C.C.",
"C.C.C.  p.f.f.g.u %.- a } } 5.5.6.5.a u C.C.C.C.C.z 2.( ( ( ! ! ! ! ! e e   C.C.C.C.C.C.C.C.C.C.C.C.",
"C.C.C.C.k.f.f.f.u u a a } 5.5.5.6.6.a   C.C.C.C.C.z <.( ( ( ! ! ! ! M e e   C.C.C.C.C.C.C.C.C.C.C.C.",
"C.C.C.C.C.    m.a a a a { } 5.V   . > 1 C.C.C.C.C.z -.( ( ( ! ! ! ! q e e   C.C.C.C.C.C.C.C.C.C.C.C.",
"C.C.C.C.C.  u u u u -     1 A A A A F > C.C.C.C.C.z -.( ( ( ) ! ! ! e e e   C.C.C.C.C.C.C.C.C.C.C.C.",
"C.C.C.C.C.C.F F > 1 F A A A S :.> A A > C.C.C.C.C.z 1.( ( ( ( ! ! Q e e   C.C.C.C.C.C.C.C.C.C.C.C.C.",
"C.C.C.C.C.C.A 1 1 F F A A A :.  > A A A C.C.C.C.C.c 4.( ( ( ( ! ! ! w w.C.C.9 x x x k x x x x x T C.",
"C.C.C.C.C.C.F F A A A A A A 1   : A A A $ C.C.C.C.z 2.( ( ( ) ! !   q.C.4 x x x x x x 8 x x x 7 C.C.",
"C.C.v.v.c.x.F F A A A A A A 1     1 A h X 7.  C.x.z <.( ( ( ! ! X C.C.5 k 3 3 3 6 7 8 l k x v 4 C.C.",
"C.C.C.C.C.C.>.A A A F A :       8.X , , , , , q.x.K 1.( ( ( _ q.C.C.C.C.C.C.C.C.C.C.C.C.C.C.C.C.C.C.",
"C.C.C.x.q.q.O O @ , , , , , , , q.q.q.q.q.x.z.x.x.P =.( (   q.C.C.C.C.C.C.C.C.C.C.C.C.C.C.C.C.C.C.C.",
"C.C.C.x.x.q.w.  q.q.q.0.X < z.e.e.w.x.x.x.x.x.x.x.K y ( X C.C.C.C.C.C.C.C.C.C.C.C.C.C.C.C.C.C.C.C.C.",
"C.C.C.c.v.v.c.c.x.x.x.x.c.N.z.x.z.x.x.x.x.x.C.C.q.    q.C.C.C.C.C.C.C.C.C.C.C.C.C.C.C.C.C.C.C.C.C.C."
};
