/* XPM */
static char *result[] = {
/* columns rows colors chars-per-pixel */
"50 50 214 2 ",
"   c #030707",
".  c #04090A",
"X  c #090D0A",
"o  c #0D120D",
"O  c #14150E",
"+  c #0A0F10",
"@  c #0E1311",
"#  c #121513",
"$  c #141916",
"%  c #191A15",
"&  c #131719",
"*  c #151C1B",
"=  c #191D1C",
"-  c #271F1F",
";  c #17201F",
":  c #1C211D",
">  c #23241D",
",  c #27261C",
"<  c #352D18",
"1  c #191F21",
"2  c #0A2327",
"3  c #162120",
"4  c #1C2322",
"5  c #1E2827",
"6  c #14272B",
"7  c #1E2629",
"8  c #1E2A29",
"9  c #012533",
"0  c #212624",
"q  c #232A25",
"w  c #2A2B24",
"e  c #222629",
"r  c #242B2B",
"t  c #292E2C",
"y  c #312C23",
"u  c #27302E",
"i  c #2C322D",
"p  c #3B3425",
"a  c #32332D",
"s  c #252E30",
"d  c #282E34",
"f  c #243132",
"g  c #2B3433",
"h  c #2D3A35",
"j  c #293439",
"k  c #2D393A",
"l  c #313533",
"z  c #343B34",
"x  c #373937",
"c  c #333A3A",
"v  c #383C3B",
"b  c #4E380C",
"n  c #3B4036",
"m  c #35413E",
"M  c #3C413B",
"N  c #6D4401",
"B  c #45453B",
"V  c #44493D",
"C  c #052C40",
"Z  c #07314C",
"A  c #323E42",
"S  c #373F46",
"D  c #2F4147",
"F  c #354442",
"G  c #3A4344",
"H  c #394B48",
"J  c #3C4B54",
"K  c #3A5254",
"L  c #3F5F65",
"P  c #03647E",
"I  c #444643",
"U  c #484947",
"Y  c #444C4C",
"T  c #49534A",
"R  c #454951",
"E  c #4C5253",
"W  c #48565A",
"Q  c #575C57",
"!  c #545B5C",
"~  c #615946",
"^  c #5F624E",
"/  c #52645C",
"(  c #5D625D",
")  c #6A6249",
"_  c #61645F",
"`  c #565D61",
"'  c #5B6262",
"]  c #5A6769",
"[  c #486B7B",
"{  c #616663",
"}  c #646A64",
"|  c #636B6C",
" . c #6A6E6A",
".. c #6D726B",
"X. c #767667",
"o. c #7B7B6D",
"O. c #646D70",
"+. c #6C7474",
"@. c #6D7778",
"#. c #727673",
"$. c #757A74",
"%. c #727C7D",
"&. c #7A7F78",
"*. c #8B7C02",
"=. c #827D74",
"-. c #7E8273",
";. c #77817E",
":. c #AD9902",
">. c #CC920F",
",. c #CBB201",
"<. c #FCB900",
"1. c #D3C908",
"2. c #E5CA02",
"3. c #FEC301",
"4. c #FECB02",
"5. c #E9D300",
"6. c #F7DA02",
"7. c #FCE401",
"8. c #8B8665",
"9. c #928C6D",
"0. c #83867D",
"q. c #8A887B",
"w. c #958979",
"e. c #8D917D",
"r. c #95917A",
"t. c #A5967D",
"y. c #016690",
"u. c #017697",
"i. c #017EAB",
"p. c #687D8B",
"a. c #747E82",
"s. c #747C86",
"d. c #0189AE",
"f. c #018BB4",
"g. c #0193B5",
"h. c #00A6BF",
"j. c #4C8797",
"k. c #768182",
"l. c #7A8585",
"z. c #7E8887",
"x. c #76848B",
"c. c #7D8789",
"v. c #768C8B",
"b. c #7E8989",
"n. c #019CC3",
"m. c #01A3C8",
"M. c #828983",
"N. c #828C8C",
"B. c #888B88",
"V. c #958C81",
"C. c #8E9185",
"Z. c #85918E",
"A. c #8A928C",
"S. c #8C988E",
"D. c #929485",
"F. c #989887",
"G. c #96998A",
"H. c #9B9C8B",
"J. c #858B93",
"K. c #848E92",
"L. c #879291",
"P. c #8A9594",
"I. c #8D9897",
"U. c #83959B",
"Y. c #8C9799",
"T. c #8E9999",
"R. c #949B93",
"E. c #949A96",
"W. c #9B9D93",
"Q. c #939C9B",
"!. c #AC9E94",
"~. c #9EA18B",
"^. c #9BA193",
"/. c #96A09F",
"(. c #9BA29D",
"). c #A3A58E",
"_. c #A5A798",
"`. c #B1B39E",
"'. c #8597A1",
"]. c #969EA1",
"[. c #939EA8",
"{. c #97A1A1",
"}. c #9BA4A3",
"|. c #9EA9A6",
" X c #96A3AA",
".X c #9CA5AA",
"XX c #9EA9AA",
"oX c #9AA8B1",
"OX c #A1A6A4",
"+X c #A3A9A5",
"@X c #A9ABA5",
"#X c #A3ABAB",
"$X c #AAADAB",
"%X c #A2B0AC",
"&X c #ABB2AC",
"*X c #B0B6AA",
"=X c #B2B5AD",
"-X c #A3ACB1",
";X c #ACB3B2",
":X c #A8B5B7",
">X c #B1B6B3",
",X c #B6B3B7",
"<X c #B4B9B4",
"1X c #BABDB6",
"2X c #B5BCBA",
"3X c #BBBEBB",
"4X c #BDC1BB",
"5X c #BAC8BD",
"6X c #C1C3BD",
"7X c #BBBFC0",
"8X c #B5C3C4",
"9X c #BCC2C2",
"0X c #C2C7C3",
"qX c #D8E1CD",
/* pixels */
"' ] +.%.%.z.k.M.N.N.N.N.N.N.N.L.Z.Z.Z.Z.P.Z.Z.P.L.P.I.b.P.L.L.L.L.Z.b.Z.Z.N.b.b.x.l.k.k.a.%.%.+.] ` ",
"' +.%.l.k.z.k.N.N.N.N.N.L.N.Z.N.L.Z.P.P.P.Z.P.L.Z.L.Z.I.L.P.L.S.L.L.Z.L.N.N.N.b.l.b.l.z.l.l.s.@.O.] ",
"] +.s.a.M.z.M.z.M.N.N.N.N.N.Z.L.Z.L.L.I.I.L.L.P.L.P.P.L.P.P.P.L.P.L.P.L.L.b.b.b.b.b.l.b.l.l.l.s.O.] ",
"+.@.c.k.N.N.c.c.N.L.N.N.A.K.L.L.L.L.Z.I.P.Z.P.Z.L.L.L.L.L.L.P.L.P.L.L.L.L.Z.L.N.b.b.b.k.k.c.x.a.@.O.",
"O.%.s.M.c.N.N.N.N.A.N.N.L.Z.L.L.P.P.L.I.P.P.P.P.L.P.P.S.P.P.L.P.I.L.P.N.P.L.L.N.l.b.k.l.k.x.l.a.p.O.",
"+.%.l.N.z.c.J.N.L.N.L.L.P.L.P.P.I.P.L.P.P.P.P.I.I.I.I.P.T.T.P.I.P.P.L.I.L.L.N.N.b.l.N.z.l.k.x.k.s.O.",
"@.a.c.N.N.N.N.N.N.Z.Z.L.A.L.I.P.P.P.I.I.P.T.P.T.I.I.T.T.I.T.P.T.I.P.I.I.L.L.N.N.N.b.c.l.l.l.k.l.@.@.",
"%.c.N.N.M.N.A.N.N.L.L.L.L.P.I.T.I.T.I.Q.I.Q.I.I.I.T.T.T.T.T.T.T.E.L.I.I.I.T.L.K.N.b.K.x.l.l.k.l.a.s.",
"@.c.N.M.N.N.N.N.Z.P.L.P.P.I.P.I.Q.Q.Q.Q.Q.Q.Q.E././.Q.Q.T././.T.Q.Q.Q.Q.E.I.I.L.K.N.N.b.b.k.b.k.a.a.",
"%.M.c.N.N.N.N.N.L.Z.P.I.I.T././.}.OX].Q.].].].Q./.}.{.}.}./././.}.{.{.{././.T.I.L.K.b.b.k.l.k.b.a.a.",
"a.c.N.N.M.N.N.P.Z.L.P.P.T.Q.Q.Q ' ( _ ( } } _ | } ' ( ( ( ( ( _ ' _ } ! ! ' U $.T.L.x.b.k.b.k.b.a.a.",
"&.c.M.N.z.Z.N.Z.P.P.P.I.Q.(.I Q .. .#.=.q.=.0.&.@.#.$.9.F.~.9.-.X.#.M.S.+.#.( k ].T.L.b.b.b.k.k.l.a.",
"l.z.B.z.N.z.N.Z.L.P.P.Q.{.G.Y +.+.&.F.w.r.F.w.w.q.w.B.F.e.-.q.t.V.V.M.;.;.#.+.B Q Q.J.N.b.b.v.l.a.%.",
"a.%.k.l.l.z.l.N.Z.I.I.Q.|.v } k.$.W.B.!.!.N.M.+X).o.0.*XN.k.U.+XA.A.A.N.b.l.;.Q l ].T.K.b.b.z.l.l.k.",
"$.k.Q.OX}.P.l.N.L.L.Q.}.M > w , % : % % % = o = % O X = $ $ o # % $ # # # % w w > B P.T.N.b.k.z.k.k.",
"P.>X6X1X4X&X|.N.Z.I.Q.|.= F H i j K 0 4 h U t / F l 0 j y i T A = B v X.7 f t q g t Q.K.N.l.b.l.l.x.",
"6X6X6X6X6X0X#X].b.P.Q.|.5 p V ) ~ < < < < 0 - 0 > < y > 4 , > = - 4 4 7 0 0 g h e e {.P.K.l.c.l.k.k.",
"1X=X=X=X=X3X3XT.{.T./.XXY t k F 7 5 * 1 $ = & d t A = : = 1 = & 0 & 1 4 4 e e s n 5 |.P.N.c.b.x.l.k.",
"@X1X1X=X@X4X7X;XI./.{.}.i k f e d 7 & 6 4 * = = * * 7 ; 7 * = e e a e 5 q 5 7 t s 1 |.P.N.c.z.N.l.b.",
"6X_.=X1X1X4X3X2X%XQ.Q.|.u l 7 f c b 3 3.4.q 3.N & & <.4.b 3.3.<.4 3.3.= 0 e 4 e v 1 .XY.N.N.c.x.b.l.",
"6X6XW.}.@X&X7X1X<X#X|.}.g t q e d 6.w , * U 4.6.* >.4.<.> 3.w 3.= <.3., t e r ; d e |.Y.N.b.c.N.b.b.",
"3X3X6XQ.OX3X;X2X3X2X:X$Xr 7 4 e t S e e r e g r w 3 s e q r t g j s q e k * e 7 7 0 #XT.L.N.N.c.l.;.",
"E.@X0X,XM.Q.,X;X7X0X2X;X= 1 A Y t W 7 d s r T h s r D f i k W U h 4 g 7 g 5 m r 0 = %X}.N.K.c.N.l.l.",
"Q.,X=X6X+Xl.{.3X2X0X7X<X& 0 t s A k B.d S R W | O.%X:Xk.k J Y W d h / J W k k k t : _ =XT.b.l.c.b.v.",
"OX2XOX0X3XB.Y.#X;X9X9X<X: 0 ! s g 8 , D 5 8 m : m H d S v s 0 h H h U g x 1 n i } h M :XQ.XXl.;.l.k.",
"OX7X[.<X6X+Xa.OX$X;X3X;Xo.+ + . . . @ . . . X . . @ . . . X X X .   X .   . . .   V n $X}.#XA.%.;.;.",
"#X$X$X1X3X1XN.].|.#X2X;XH.V.4 1 x Y e | 0 t f D I s R W { U c v.qX5Xp.Z.x.[ M W I Q g U (.Q./.Z.@.@.",
"].1X<XG._.3X+X+.].].|.$XD.# t c h j x Y c Y G G g 4 g t r g t w 5 K T u j i k c H 4 4 u #XZ.#X+XI.+.",
",X=X$XR.#.OX<X;.Q.T.Q.W.o.4 4 i = 1 3 1 * 4 * = $ = = $ * * & & $ $ * 3 ; ; 4 * * M t 7 }.{./.{././.",
"=X=X1X2Xa.O.#X;XO.#X}.#X .4 0 : = 1 = ; 5 * $ = $ : f * * = $ & $ $ * 3 j * 3 @ ; * e 0 .XQ.P.N.(.T.",
"1X1X@X>XoXL.L.}.T.P.#X#XOXg t w 5 * = i 3 * 7.6.5.$ 7.$ 7.,.= 6.2.$ < * 5 ; 3 ; $ * j t N.b.Z.I.P./.",
"+X0X>X=XOX'.{ T.#X+.].|.2X; l 0 ; 4 3 r = * 7.7.*.% $ 6.5.5.q :.2.6.$ $ 5 5 * * * 4 r r L.Z./.Z.P.T.",
"_.#X;XJ.}..X X X#XQ.T.].2X= c 4 4 z z : 8 ; 7.* $ > b $ 2.1.u : 6.2.z e 8 5 u K * r t u L.c.N.L.T.Q.",
"OX$X3X].-X[.c.x.U.{.k..X:X* F > 3 4 : h L ; * = ; 4 5 : * ; 8 ; ; * 5 r r 5 h g ; 3 e 5 N.a.c.T.A.].",
";X=X$X[.7X-X@X] |.}.oX-X>X1 4 a 5 ; 5 8 ; ; 4 ; q 5 $ 3 = * = h g r ; ; 5 q 3 = * 5 n : J.Y.c.Q.I.{.",
"-X].OXP.[.OX7XK.T.:X;XN.-X= B h w w q : , % ; q 0 f 3 u 7 7 5 z 5 * 4 4 5 k k t * m g = W.E.J.Q.W.Q.",
"J.Q.}.J.Q.,X0X'.H .X:X X7Xq q e g 8 g Y r G q 0 q F t r g 7 5 0 5 r M e ..g F d l l r * @.M.B.l.M.N.",
"Q.E.Q.B.P.P.8X+XE b.].XX! h . . . . . . .     . . . . .       .     . X X X   . X O 0 y Q %.M.G.Q.OX",
"].OX].N.s.#X$XQ.=.x.l.}.0 c ^ g e ~ j h A r ^ l j.i e f ] m u f V I v g J m ' g g k # 0 _ ` +.N.H.}.",
"OX=X#XY.T.U.p.Y.M.Q I./.0 v a x V z e i a t f t u u t t u g u t r t r r t t r 5 q g X = { a.+.+.a.A.",
"$X5X4X>X,Xl.} [.U.q.OXQ.t e 0 e 4 q 4 5 5 ; 4 1 : 5 : 5 * 7 * 3 4 4 5 q r : 4 1 u g o % }  .} l.+.a.",
"8X:X&X1X3X=XM.U.-X%.:Xc.0 r 4 5 5 4 5 4 ; ; = 1 * * ; ; $ 1 = * ; 4 4 e t r 5 = m x i w +.+.' #.M.%.",
"&X@X&X=X1X1X].J.l.E.W.E 7 5 0 7 5 : 8 Z d.2 Z u.2 9 m.u.y.h.m.1 i.m.4 t e t 5 4 G m G.;. .+.| B.N.$.",
"|.9X@X@X,X1X_.Q.I.s.0.U 4 0 : : : * ; C $ d.d.d.d.d.@ g.2 f.g.2 n.1 % ; ; ; = = i t P.P.}.O.$.%.%.L.",
"}.$X>X;X2X9X0.OXJ.I.` ! = 7 3 4 : ; % 9 u.@ u.P * u.& i.Z u.d.6 $ = 3 0 = : : : C 4 X.(.z.$X+.a.$.%.",
"$X-X&X;X+X,XA.+.@.l.` W @ = % * % $ O o o o o o o o X o @ O O @ & * * ; ; * ; = : 5 E A.M.^.R.Q.k.Q ",
"|.A.#X#X=XE.A.E #.` H ` @ @ # @ o o X : > % X o o % o o o o o o # # & $ $ $ * = : : T l.A.^.I.G.;...",
"E.P.W.W._.E ( | C.&.v R X ) p o X : _.~.F.F.F.e.o O X o o X X o o o O o $ # % = l % -.M.G.A.R.R.A.l.",
"#.$X#.U H.D.#.C.0.q.^._.H.W.@X9.=.).D.r.~.~.).F.).e.o X % 9.F.8.q.X . o 9.o o o o > G.^.C.&.l.M.l.$.",
"#.&.C.C.R.C.q.&.X.M.^.F.e.r.H._.F.F.~.~.).~.~.~.-.~.~.~._.~._.).F.-.`.~.D.~.C.G.D.G.C.0.C.#.$.M.;..."
};
