/* XPM */
static char *result[] = {
/* columns rows colors chars-per-pixel */
"50 50 110 2 ",
"   c #030406",
".  c #070806",
"X  c #090806",
"o  c #050609",
"O  c #08070B",
"+  c #05090C",
"@  c #0A0B0D",
"#  c #0E100D",
"$  c #10100F",
"%  c #070E10",
"&  c #0C0E11",
"*  c #100F14",
"=  c #0D1214",
"-  c #0E1518",
";  c #0F181A",
":  c #111415",
">  c #181316",
",  c #1F1916",
"<  c #131619",
"1  c #15191C",
"2  c #191B1D",
"3  c #1D201D",
"4  c #20211D",
"5  c #151D21",
"6  c #1B1E21",
"7  c #152026",
"8  c #1D2124",
"9  c #1E2529",
"0  c #1F292A",
"q  c #212325",
"w  c #282625",
"e  c #252827",
"r  c #222629",
"t  c #25292C",
"y  c #2A2B2D",
"u  c #352B2B",
"i  c #2F302F",
"p  c #252B31",
"a  c #2B2E32",
"s  c #302F31",
"d  c #2D3134",
"f  c #2E3439",
"g  c #2F383B",
"h  c #313335",
"j  c #373937",
"k  c #393934",
"l  c #333639",
"z  c #35393C",
"x  c #393B3D",
"c  c #41413C",
"v  c #6C453B",
"b  c #353C42",
"n  c #3B3E41",
"m  c #3D4144",
"M  c #37424A",
"N  c #3D454B",
"B  c #3F484A",
"V  c #424445",
"C  c #434549",
"Z  c #454A4C",
"A  c #4A4C4D",
"S  c #524D4D",
"D  c #4F504F",
"F  c #53554F",
"G  c #474C51",
"H  c #4A4D51",
"J  c #4D5153",
"K  c #4F535B",
"L  c #525355",
"P  c #53565A",
"I  c #55595D",
"U  c #5A5D5E",
"Y  c #60605D",
"T  c #545C61",
"R  c #5C5E61",
"E  c #576266",
"W  c #5D6163",
"Q  c #5E656B",
"!  c #626466",
"~  c #676866",
"^  c #696965",
"/  c #63666A",
"(  c #65696B",
")  c #6B6A6A",
"_  c #756C69",
"`  c #7F7265",
"'  c #71706C",
"]  c #636C72",
"[  c #6B6E71",
"{  c #6D7175",
"}  c #6F747A",
"|  c #727373",
" . c #747579",
".. c #75797D",
"X. c #7D7D7C",
"o. c #7E7F82",
"O. c #7E8184",
"+. c #828386",
"@. c #82868A",
"#. c #868A8F",
"$. c #898A8D",
"%. c #8C9195",
"&. c #979A9C",
"*. c #969FA1",
"=. c #A1A2A3",
"-. c #ABB1B7",
";. c #BEBEC5",
":. c #CBCBC6",
">. c #CDD3D3",
",. c #E8ECED",
/* pixels */
"m 6 h V 2 < = z < + 2 6 l p G Z d = 2 @ q a R ~ a 6 & m % * 9 A z r f n x j 5 r y t q :.< 1 z 8 @ < ",
"< 5 t 8 t q 5 6 - % 2 = 8 6 5 8 r : 9 r & &   6 5 A 6 < V z z r H r @ P S H d W e 5 C < r t @ C & : ",
"q d t r @ q = r 0 u 8 l 8 q < m i 1 @ x S @ + < l 6 b % q 5 f < p L 8 r = z e q y 6 t 9 n 1 < - q = ",
"m r f m : - 2 8 t 8 = 2 J t 6 1 z < = < < 6 1 < 5 n f - - s % 6 @ = = : & 8 t N 8 = r 8 + 6 L 9 < < ",
"t ; r 7 6 y % P r i t + - 2 = W < H a < 6 q z 9 a l p < b -   8 V h : : 9 8 C - y l t y 5 8 < 9 6 - ",
"; l # B < 9 V 6 1 7 + 7 0 1 + t I d r d ` z z @ o = r q 1 p 5 < < n m p 2 D X.e f n : D - 9 5 m s = ",
"1 h : = - m 9 8 l t d 9 t : 2 2 x n < 8 = z z 8 % > h 8 o 1 5 b t Z 9 < V = y ; y V 9 6 t o t 6 C / ",
"C t 8 m 8 2 2 L f < M   z t r 6 t | % 5 8 + 6 y 6 a = z 1 a r - z r t l f 1 7 ; 6 @ 1 { H n T l G - ",
"0 q # M = - + t 2 o : p H < n t h 3 @ W - z b = & z 6 < r C - 2 2 = l f 9 9 8 @ B z b O.W f a + 6 6 ",
"t % J 3 5 - 9 1 = t l y 9 n H R n Q | - W r l 9 p m 6 s t } C d % d D a + = 1 2 0 = a 5 9 N ; *.a = ",
"- 8 a + = e 1 2 - 1 8 l t z r n d N 1 % ) - t a < G r 9 n f t : 5 d m d 1 8 = + - 9 1 - < C n C / r ",
"8 1 = N ' C 8 ; 2 a 6 a a y 5 < 1 6 x d - y H 1 T & = < A 1 8 h # < J # = 1 3 % 6 N 1 8 A C - 9 T 6 ",
"j = r d 3 5 + - 2 : C l N v f a / 5 = n l % 6 C C O A 8 N J - < q : 2 d W 8 o o < 8 8 a z m l e 9 l ",
"@ 1 x x 3 < = 2 + : = G H 1 L z - 8 1 2 a a 1 < > p & @ 5 H a t C M : < l z 2 q < a Z S d : + 2 = < ",
"t < < 3 g 2 l 2 d h + + d & 6 9 e 5 j = - < b 6 r n y w A f q n - m x e = - = : o s & = 1 @ d 2 : t ",
"6 b 2 - = + A 8 t n 2 e q } 1 R - I r 8 p r b & < r 6 5 a T < f C e 7 = + d n % = 2 + : : r l & d : ",
"8 # l f + p m + C y y e d { - = { Q d 1 P d - J - = < h < : = l 2 J 9 / i < @ 1 q < r < = t < & @ : ",
"d < = : m l f J 1 e t W 2 2 I 2 l C ! 7 Q p n D O.a 8 m . t   . + 1 % + d n y a y G @ 6 o + r V o 2 ",
"2 t 2 2  .2 p V 0 W - 1 + + 9 = x f ~ x g P P = q = 2 < ^ l = h x d r + a d < l 8 5 o H : : # V A o ",
"= p V < z 2 t g d r f - a A ; U l z 6 n t Q z 1 V U : d q n + m + @ p 1 x V J o + a + < < @ d @ O.+ ",
"- r r = y 3 t t A K + 2 > A Z m + d r C V h < 1 = - x 6 6 z P m % ..& 6 . C 8 J % n x d 1 2 @ l y - ",
"Y 2 8 q < A 1 6 ' 0 T d 2 = m A >.J @ r 9 &.] b #.2 8 = y Z P 2 @ 2 t e ; l J a : y h ( e t d q % = ",
"< r 3 c - - = k 2 E % 9 = @ h h Z r ! f L m e + = : 1 o t j r r Z 2 < 9 - + r ' r | l @ 8 1 : o = < ",
"< = Q j % j p ; : 1 3 6 : 8 J 6 n r W y y A < W & = r C 1 1 A = ^ y 8 = + d z < z l x + 9 + = & V 8 ",
"Z = 7 d 1 R } 2 H 8 : ( + & 2 r % h % & & : n 6 n y 1 ..> 6 p 1 +.h 9 Z < ( : Z = R < < ..c r 9 q = ",
"x 1 e 1 A 2 m n < 6 8 j : = p q V < l q h o = 6 @ 1 < @ P 6 6 1 2 y 8 V < ..m z p : 1 1 A ( + t 8 2 ",
"8 : e < < 0 W r _ d + q = x % p m d 9 8 y r / y @ o a  .6 z s r C 7 8 = } i r < @ ~ + A = = @ i + A ",
"M + x h : 2 : : 6 C 6 p I j 1 d = = < m V a & o   + 6 @ = : ' 8 3 H 8 ] y = @ y 6 z } 6 t 2 ' @ p < ",
"C = l + r l Z r q 8 > 6 z t O 6 1 n : ,.< @ o @ s l a Z t %.p 8 : y 2 ) 6 5 @ + @ + q n < q ;.= # 1 ",
"x @ 8 V r Z M K n @ f : * 6 q 6 G @ 2 @ a V = z 2 & a @ 5 l : p l 6 y = 6 & r < 1 y t % < r 8 8 q x ",
"5 : p < 2 : 8 A < < w % < & s % q n p % & n 2 @ @ d @ o n n p t z a %.@ < % y L % : a @ < 8 l = : 8 ",
"r = = : + Z # 3 w & < p n % - V h a : ! * y : 2 q O z 8 y % & < H $ Z r @ y @ A o : q x > m x + d o ",
"2 l V : J y J = < ( a @ @ y o.2 & 2 C < & a 6 A t x < r m ! f 1 < - ) I 2 & & : y p l y o O r p r J ",
": = A : @ 2 A l ' V + = a / 1 V j < l < 6 @ 8 8 a > l < r -.8 d j % n | % < @ O $ Z z y d = f J y 2 ",
"  8 o . 2 A q m : d = = 2 $ . X 2 R 6 : z < a O a - r * L C 8 j Z o 6 & < a + > @ V q @ 5 R & = = & ",
"= 1 r @ : @ : : 2 : 3 2 @   @ : < % ..> W l 6 p b > s % F Z l @ | z a 1 r : - o O o z a a I 1 P y % ",
": % y : t 8 h 2 : y : q j @ @ O 2 @ a $.r U o 6 z O : l < 6 o r a r I H 6 < % l h W 6 z < G x 2 q o ",
"@ = W < A h  .y = d : y a V * $ * Z 6 o X y 6 : h @ L n 6 / | H 6 o % > 6 r H < t y L 2 6 f * y @ @ ",
"..o @ 2 O.< + l > 8 y : < = 2 r O n 2 w L r o @.> 6 < 6 n n a 6 6 @ t < P   o % O o 2 a t l q : 2 J ",
": > = 8 2 j 3 = y x 6   6 V : : o % q 6 & & > h r n < I n 5 > z r 6 H a R o 2 a + l < l J a y : V @ ",
"a z l : 6 r 6 < e y r 6 2 & x 2 C 2 : < r y 2 H V < y 2 r 8 , @ b q H & l t = @ n : A z o t < r @ m ",
"1 2 < 2 : 8 < [ % 2 : R o : q 2 c r w & y A 8 a V * h & r J C n p P p o 6 & @ + 8 : @ > O a 1 6 : r ",
"Z : < q : A a r * : : < 2 j : o q F n A | z H r @ 8 o 6 J h < & 6 * / 6 1 2   : q @ : l z   O L j u ",
"* q C @ 5 D l < 2 6 2 y h Z h h < y @ @ * l & 5 > : & r d f < z H q o C 6 < 2 = / t R t $ o > a P > ",
"d q t z n s t w 6 < < t o & q @ u V o = o = q < V | @ @ L o s + r l O : q 2 C V o h & j   p / q O @ ",
"o < r n O A r > w ..P & & h : y 2 2 l m z > o   @ 2 > h : q Z > 2 < l < < & + o 1 a s 2 O 4 : O L * ",
"b < < z 6 x 8 2 - : o 6 r n @ q 6 6 6 2 : &   : X Z / <   6 * l u p A = @ 8 > : > @ x O l @ o t y w ",
"z d 1 n 6 p a 6 l z & 6 N 6 l > @ L ( * x @ q o l & y z @ l w > q : r 6 2 V y Z 2 O @ h q @ 2 n @ O ",
"~ e a < y y H : Z @ 2 =  .: Y @ : I j ( ^ * O R l a O y k r @ D : @ 6 * , X & o l H s 2 * : ^ q C 6 ",
"< h n @ j n @ r r n A h t A 8 C 6 q @ : 6 1 w $ & * 6 Y A O 6 * < w [ =.[ & @ : : 2 l @ 4 @ @ + @ o "
};
