/* XPM */
static char *result[] = {
/* columns rows colors chars-per-pixel */
"50 50 214 2 ",
"   c #050101",
".  c #0A0100",
"X  c #0F0A00",
"o  c #120300",
"O  c #120B03",
"+  c #1E0A00",
"@  c #1C0500",
"#  c #1F1000",
"$  c #171613",
"%  c #2C0D03",
"&  c #240300",
"*  c #380F00",
"=  c #2A1704",
"-  c #321401",
";  c #3D1B03",
":  c #371809",
">  c #2B1210",
",  c #321C13",
"<  c #38230B",
"1  c #34201A",
"2  c #3A2714",
"3  c #25221C",
"4  c #373736",
"5  c #262323",
"6  c #451C04",
"7  c #4C1B1B",
"8  c #7C0E0D",
"9  c #4D2402",
"0  c #512D0E",
"q  c #5B3709",
"w  c #472A14",
"e  c #502810",
"r  c #55361A",
"t  c #67380D",
"y  c #653815",
"u  c #70360A",
"i  c #533A24",
"p  c #56332A",
"a  c #523730",
"s  c #4A3521",
"d  c #7A2120",
"f  c #653C36",
"g  c #70420E",
"h  c #7D520E",
"j  c #7A4A18",
"k  c #7E501D",
"l  c #594326",
"z  c #4C4235",
"x  c #694929",
"c  c #734820",
"v  c #79562B",
"b  c #755C34",
"n  c #3B3F40",
"m  c #705B45",
"M  c #695C54",
"N  c #9A2D1D",
"B  c #A3201E",
"V  c #9B292B",
"C  c #AF2320",
"Z  c #B82425",
"A  c #8B5519",
"S  c #915A16",
"D  c #995A0E",
"F  c #A35B0F",
"G  c #AA6315",
"H  c #AC671A",
"J  c #AE6A1C",
"K  c #A66219",
"L  c #B16619",
"P  c #B26C1D",
"I  c #B8661A",
"U  c #B6711D",
"Y  c #BA731E",
"T  c #804F28",
"R  c #865924",
"E  c #855F37",
"W  c #946224",
"Q  c #9B6D2E",
"!  c #9E6523",
"~  c #89653C",
"^  c #9C6C39",
"/  c #876027",
"(  c #A46925",
")  c #AE6C22",
"_  c #A26A2A",
"`  c #AB6C29",
"'  c #A66421",
"]  c #B36D22",
"[  c #B86E20",
"{  c #AE732C",
"}  c #AF7126",
"|  c #B57222",
" . c #BB7423",
".. c #BD7924",
"X. c #B4742B",
"o. c #BB7529",
"O. c #BC7B2B",
"+. c #B67924",
"@. c #A16D33",
"#. c #A66B31",
"$. c #AC7530",
"%. c #AC7A3C",
"&. c #AC7937",
"*. c #B37633",
"=. c #B37834",
"-. c #B97D34",
";. c #BD7F3A",
":. c #B77C38",
">. c #C17524",
",. c #C27B25",
"<. c #C47D29",
"1. c #C7782D",
"2. c #955A54",
"3. c #9B7546",
"4. c #9D6E5A",
"5. c #997C53",
"6. c #92734E",
"7. c #AC7C44",
"8. c #A27A4B",
"9. c #A1764D",
"0. c #B57E43",
"q. c #B67D47",
"w. c #8E6F64",
"e. c #96736E",
"r. c #BE8025",
"t. c #BF8134",
"y. c #BC833C",
"u. c #B5813B",
"i. c #C68126",
"p. c #C98226",
"a. c #C5822A",
"s. c #CA842A",
"d. c #CE882E",
"f. c #C48233",
"g. c #CF8630",
"h. c #C3863C",
"j. c #B5854E",
"k. c #BB8346",
"l. c #AC8559",
"z. c #BB8C5A",
"x. c #B58854",
"c. c #98896E",
"v. c #968A73",
"b. c #A4936C",
"n. c #B09A6C",
"m. c #BA9F74",
"M. c #BFA26E",
"N. c #C28D4A",
"B. c #C88A47",
"V. c #CE9141",
"C. c #D1924F",
"Z. c #C48F54",
"A. c #C49253",
"S. c #CB9654",
"D. c #C4935B",
"F. c #CB975C",
"G. c #D39754",
"H. c #C09B6F",
"J. c #C4A77B",
"K. c #D6AB71",
"L. c #A08681",
"P. c #B9A881",
"I. c #A4A3A2",
"U. c #C39B92",
"Y. c #F18C88",
"T. c #E7989B",
"R. c #CAB88A",
"E. c #D0BA90",
"W. c #D5BB8D",
"Q. c #D0B2AB",
"!. c #F2AEA3",
"~. c #F9B4A4",
"^. c #F9B8A5",
"/. c #FABBAB",
"(. c #F6B9AB",
"). c #FBBEB1",
"_. c #F6BFB2",
"`. c #E7BBAD",
"'. c #DAC395",
"]. c #DEC999",
"[. c #FAD98C",
"{. c #F8D98D",
"}. c #EACC9A",
"|. c #F6D695",
" X c #F8D790",
".X c #F6DB94",
"XX c #FADA95",
"oX c #F6DC9C",
"OX c #FBDD9C",
"+X c #F8E19D",
"@X c #F6DBA4",
"#X c #FBDEA1",
"$X c #F5DFAC",
"%X c #FCDEAA",
"&X c #E7C2B7",
"*X c #F7C4B7",
"=X c #FAC2B4",
"-X c #FBC5BA",
";X c #FBCABD",
":X c #F5C9BE",
">X c #EAD6AE",
",X c #FAE2AB",
"<X c #F7E1A2",
"1X c #F6E2B4",
"2X c #FCE5B4",
"3X c #D7D3CC",
"4X c #EEC9C1",
"5X c #FBCDC2",
"6X c #FBD1C6",
"7X c #FBD2C9",
"8X c #EAE9E9",
"9X c #FDFEFD",
"0X c #F6F6F5",
"qX c None",
/* pixels */
"qXqXqXqXqXqXqXqXqXqXqXqXqXqXqXqXz.& qXqXqXqXqXqXqXqXqXqXqXqXqXqXqXqXqXqXqXqXqXqXqXqXqXqXqXqXqXqXqXqX",
"qXqXqXqXqXqXqXqXqXqXqXqXqXqXqXo H 0.qXqXqXqXqXqXqXqXqXqXqXqXqXqXqXqXqXqXqXqXqXqXqXqXqXqXqXqXqXqXqXqX",
"qXqXqXqXqXqXqXqXqXqXqXqXqXqXqXF.J [ 0 O qXqXqXqXqXqXqXqXqXqXqXqXqXqXqXqXqXqXqXqXqXqXqXqXqXqXqXqXqXqX",
"qXqXqXqXqXqXqXqXqXqXqXqXqXqXqX{ | | k qXqXqXx 9.. qXqXqXqXqXqXqXqXqXqXqXqXqXqXqXqXqXqXqXqXqXqXqXqXqX",
"qXqXqXqXqXqXqXqXqXqXqXqXqXqX@ Y o.8.* 0.3.qXqXqXqXqXqXqXqXqXqXqXqXqXqXqXqXqXqXqXqXqXqXqXqXqXqXqXqXqX",
"qXqXqXqXqXqXqXqXqXqXqXqXqXqXy | >  .6 +. .| U U P #.$.5.qXqXqXqXqXqXqXqXqXqXqXqXqXqXqXqXqXqXqXqXqXqX",
"qXqXqXqXqXqXqXqXqXqXqXqXqXqX/ 5.Y ,.;...o a.o.+.D .. .U r i qXqXqXqXqXqXqXqXqXqXqXqXqXqXqXqXqXqXqXqX",
"qXqXqXqXqXqXqXqXqXqXqXqXqXqX8.+.,.i.O.f.u.,.i.-.j .... .) @ $.qXqXqXqXqXqXqXqXqXqXqXqXqXqXqXqXqXqXqX",
"qXqXqXqXqXqXqXqXqXqXqXqXqXR Y ..i.i.i.i.A s.i.r.8XI.....i 9X9X' qXqXqXqXqXqXqXqXl.6 qXqXqXqXi E : qX",
"qXqXqXqXqXqXqXqXqXqXqXqXr X.o.,.a.p.i.i.s.s.p.s.9X9X9X.. .0X9X8X} qXqXqXqXqXqX  qXG W :.] ] ] ( 9 qX",
"qXqX+ ^ %.q.D.D.x.j.Z.h.,...<.a.p.s.s.s.s.s.s.s.M 9X9X3X..>.$ 4 v.k qXqXqXqXqXqXqX] t u J [ *., qXqX",
"qXQ F ' ; e * % { | Y ..,.<.<.p.s.s.s.s.s.s.s.s.a.0Xn 9XR Y ..z 3X- q ( qXqXqXqXqX@.I L ) o qXqXqXqX",
". t (.~.(.(.^.^.~._.& ,.i.p.a.a.s.s.s.s.s.s.s.a.,.O.3 5 9X&.}.X $ '.M.! Z.qXqXqXv L [ c qXqXqXqXqXqX",
"w.~.).).-X5X;X;X=X/.~.=X<.s.d.d.s.s.s.s.s.s.s.s.N.,.<.z b.<X  4 $ #X$XI z.qXqX8.o.[ X.qXqXqXqXqXqXqX",
"e./.).5X5X7X7X7X5X-X/.~.5Xf.d.d.d.s.s.i.s.p.a.i.a.Q #X+X<X%X,X,X$X@XQ I s qXZ.Y  . .j.qXqXqXqXqXqXqX",
"1 ).-X5X5X7X7X7X;X*X/.~.!.t.g.d.d.s.i.r.a.t.% h -.K.N ,X%Xb.%X2X@XoX( ` qXX. . ... .qXqXqXqXqXqXqXqX",
"  ).-X;X6X7X7X7X5X;X=X/.4.,.1.s.d.t.A a.a.i.i.,...r Z 8 C V Z Z #XoX( e [  .>. . .D.qXqXqXqXqXqXqXqX",
"qX=X*X-X5X7X7X7X6X;XU.;X;Xh.,.<.a.s.r.<.i.h q ; @XR.%Xd 7 2.& B @XW.c  ...>... .X.o qXqXqXqXqXqXqXqX",
"qX&X=X-X;X5X5X7X7X7X6X5X5X&X .....<.a.,.,.Y ,.m.R.#X%X%Xp Y.Y.T.@Xg  . ...>...[ A.qXqXqXqXqXqXqXqXqX",
"qXqX7X=X=X-X5X5X6X6X6X5X;X=X`.N.Y  .....,.>.-  .m OX%X%X,X%Xf p #X>.o.....[ [ =.qXqXqXqXqXqXqXqXqXqX",
"qXqXqXL./.).=X-X;X;X;X:X-X).^.^.> u.U P X.%.U Y U | = $X%X$X6.>X0 ..1...+.U } % qXqXqXqXqXqXqXqXqXqX",
"qXqXqXqXqXQ././.).=X*X/.).^.~.~./.qXqXO x j.{ =.; =.*.H P U X...+.,. .R '.( qXqXqXqXqXqXqXqXqXqXqXqX",
"qXqXqXqXqXqXqXqX1 4X5X5X4Xa qXqXqXqXqXqXqXqX. A.] [  . . .....+.W +XK.}.{.[.v.qXqXqXqXqXqXqXqXqXqXqX",
"qXqXqXqXqXqXqXqXqXqXqXqXqXqXqXqXqXqXqXqXqX8.+.o...<.<.<.<.<.,...P.oX#XXXXX|..Xb.qXqXqXqXqXqXqXqXqXqX",
"qXqXqXqXqXqXqXqXqXqXqXqXqXqXqXqXqXqXqXqXN...<.<.<.<.a.s.a.a.<. .1XoXOXOXb OX.X#XqXqXqXqXqXqXqXqXqXqX",
"qXqXqXqXqXqXqXqXqXqXqXqXqXqXqXqXqXqXqXC.o.,.,.<.a.1.a.V._ X...| <XOXOXOXoXoXOXOXc.qXqXqXqXqXqXqXqXqX",
"qXqXqXqXqXqXqXqXqXqXqXqXqXqXqXqXqXqXN.>...1.,.,.G.2 j.<.<.,...] XXOXOXOX#X2 #X+X,XqXqXqXqXqXqXqXqXqX",
"qXqXqXqXqXqXqXqXqXqXqXqXqXqXqXqXqX0.U o.....S.. qXqX& ......| ! XXOX#XOXoX#XoXOX2XqXqXqXqXqXqXqXqXqX",
"qXqXqXqXqXqXqXqXqXqXqXqXqXqXqXqX; P | ..B.. qXqXqXqXqX<... . .~ XXOX#X#X%X%XOXOXl qXqXqXqXqXqXqXqXqX",
"qXqXqXqXqXqXqXqXqXqXqXqXqXqXqXqX| Y  .y qXqXqXqXqXqXqXf... .] XXXXOX#X#XOX#X#X+X<XqXqXqXqXqXqXqXqXqX",
"qXqXqXqXqXqXqXqXqXqXqXqXqXqX. P | Y -.qXqXqXqXqXqXqXf... .[ J.{.OX<XOX%XOX#X#XOXOXqXqXqXqXqXqXqXqXqX",
"qXqXqXqXqXqXqXqXqXqXqXqXqXqXz.P  ...,.*.qXqXqXqXqX%.....U $.XX.XOX#X#X#X<XOX#XoXXXqXqXqXqXqXqXqXqXqX",
"qXqXqXqXqXqXqXqXqXqXqXqXqXqXqXT [  .* 3.qXqXqXqXw ..,.+.Y W.{.OXOX#X#X#X%XOX<XOX#XqXqXqXqXqXqXqXqXqX",
"qXqXqXqXqXqXqXqXqXqXqXqXqXqXqXqXo.-.qXqXqXqXqXqXf...,...W  X XOXOX+XOX%X#XOXOXOX2XqXqXqXqXqXqXqXqXqX",
"qXqXqXqXqXqXqXqXqXqXqXqXqXqXqXqXqXqXqXqXqXqXqXS.....,.Y R.[.OXOX#X#XOX<X#X#XOXoXO qXqXqXqXqXqXqXqXqX",
"qXqXqXqXqXqXqXqX3.q.7.0.=.X.X.y.S.6.= qXqXqX< <.a.i...=.|. XXXOXOXOX#X#XOX+XOXOXqXqXqXqXqXqXqXqXqXqX",
"qXqXqXqXqXqX6.qXqXqXqXqXqXqXqXqX# 7.t...<.-.B.p.a.a.,.9 {.{.XX#XOX#XoX#XoXOXoXn.qXqXqXqXqXqXqXqXqXqX",
"qXqXqXqXqXqXqXqXqXqXqXqXqXqXqXqXqXqXqXqXqXH.,.p.s.<.,.O.2X{.oXoXOXOX#XOX X[.t qXqXqXqXqXqXqXqXqXqXqX",
"qXqXqXqXqXqXqXqXqXqXqXqXqXqXqXqXqXqXqXqX. X...,.<.<.,. .X.R.oXXXOXXXOX.X@X` E qXqXqXqXqXqXqXqXqXqXqX",
"qXqXqXqXqXqXqXqXqXqXqXqXqXqXqXqXqXqXqXqX-. .....,.,... .+.Y =.b >X'.q X.P B.qXqXqXqXqXqXqXqXqXqXqXqX",
"qXqXqXqXqXqXqXqXqXqXqXqXqXqXqXqXqXqXqXz.| | ..,.,...+...W o.B.S U Y o.| -.qXqXqXqXqXqXqXqXqXqXqXqXqX",
"qXqXqXqXqXqXqXqXqXqXqXqXqXqXqXqXqXqXqX| |  .,.,...,.o.= qXqXr  . .Y U =.> qXqXqXqXqXqXqXqXqXqXqXqXqX",
"qXqXqXqXqXqXqXqXqXqXqXqXqXqXqXqXqXqXj.U o.Y ......A.qXqXqXqX~ P  .Y  .w qXqXqXqXqXqXqXqXqXqXqXqXqXqX",
"qXqXqXqXqXqXqXqXqXqXqXqXqXqXqXqXqXqX|  .| ....S.  qXqXqXqXqXS... ...qXqXqXqXqXqXqXqXqXqXqXqXqXqXqXqX",
"qXqXqXqXqXqXqXqXqXqXqXqXqXqXqXqXqX&.[ Y | N.qXqXqXqXqXqXqX- +.>.S >.X.w qXqXqXqXqXqXqXqXqXqXqXqXqXqX",
"qXqXqXqXqXqXqXqXqXqXqXqXqXqXqX7.) J ] 3.qXqXqXqXqXqXqXqXqX^ ..,...,.X.[ X.qXqXqXqXqXqXqXqXqXqXqXqXqX",
"qXqXqXqXqXqXqXqXqXqXqXqXi ) P P ] L P qXqXqXqXqXqXqXqXqXqXqX0. .o...[ ;._ r qXqXqXqXqXqXqXqXqXqXqXqX",
"qXqXqXqXqXqXqXqXqXqXqX{ ) ) L H P ) + qXqXqXqXqXqXqXqXqXqXqXqX. D.X.] ] x.qXqXqXqXqXqXqXqXqXqXqXqXqX",
"qXqXqXqXqXqXqXqXqXqXqXK @.H L G } qXqXqXqXqXqXqXqXqXqXqXqXqXqXqXqXqXqXqXqXqXqXqXqXqXqXqXqXqXqXqXqXqX",
"qXqXqXqXqXqXqXqXqXqXqXqXq.&.l.. qXqXqXqXqXqXqXqXqXqXqXqXqXqXqXqXqXqXqXqXqXqXqXqXqXqXqXqXqXqXqXqXqXqX"
};
