/* XPM */
static char *result[] = {
/* columns rows colors chars-per-pixel */
"50 50 57 1 ",
"  c #000000",
". c #080802",
"X c #1C1C00",
"o c #252501",
"O c #2C2C08",
"+ c #313100",
"@ c #4D4D2A",
"# c #505022",
"$ c #9B9B00",
"% c #ABAB00",
"& c #B1B100",
"* c #BDBD00",
"= c #BBBB10",
"- c #949427",
"; c #818135",
": c #C4C400",
"> c #DFDF00",
", c #F4F400",
"< c #FFFF00",
"1 c #FFFF0B",
"2 c #FFFF13",
"3 c #FFFF1B",
"4 c #C3C32D",
"5 c #D3D320",
"6 c #FFFF24",
"7 c #FFFF2C",
"8 c #FFFF34",
"9 c #FFFF3C",
"0 c #828241",
"q c #A7A767",
"w c #BABA67",
"e c #FFFF44",
"r c #FFFF4C",
"t c #FFFF54",
"y c #FFFF5B",
"u c #FFFF63",
"i c #FFFF6B",
"p c #FFFF73",
"a c #FFFF7B",
"s c #FFFF83",
"d c #FFFF8B",
"f c #FFFF94",
"g c #FFFF9C",
"h c #FFFFA4",
"j c #FFFFAC",
"k c #FFFFB4",
"l c #F0F0BE",
"z c #FFFFBB",
"x c #FFFFC3",
"c c #FFFFCB",
"v c #FFFFD3",
"b c #FFFFDC",
"n c #FFFFE4",
"m c #FFFFEB",
"M c #FFFFF3",
"N c #FFFFFA",
"B c None",
/* pixels */
"BBBBBBBBBBBBBBBBBBBBBB         BBBBBBBBBBBBBBBBBBB",
"BBBBBBBBBBBBBBBBBB                 BBBBBBBBBBBBBBB",
"BBBBBBBBBBBBBBB       0apiuytr-       BBBBBBBBBBBB",
"BBBBBBBBBBBBB     qffdsapiuutrr9975     BBBBBBBBBB",
"BBBBBBBBBBBB    kjhgffdsapiuytre98662     BBBBBBBB",
"BBBBBBBBBB    zzkjjhgfdsaaiuutre9876321    BBBBBBB",
"BBBBBBBBB   lcxxzkjjhgfdsapiyyte9976321<<   BBBBBB",
"BBBBBBBB   vvvccxzkjhgfd     ytre887331<<<   BBBBB",
"BBBBBBB   bbbbvcxxzkjgg       tre9866211<<<   BBBB",
"BBBBBB   bnnnnbvcxzkjhg       tre9876311<<<<   BBB",
"BBBBB   bnmmmnbbvcxkjhg       yre9876311<<<<<   BB",
"BBBB   bnnMMMmnbvcxkkjh       ttr9876221<<<<<<   B",
"BBBB  cbnmMNNMmbvcxkkhg.      yrr987632<<<<<<<<  B",
"BBB   vbnmMNMmnbvcxzkhhfw   ;uyre9876311<<<<<+    ",
"BBB  xvvbnmmMmnbvcxkjjgfdsapiuyre9876321<<<:    BB",
"BB  .xcvbnnmnnbvcczkkhgfdsapuyyre9876211<<    BBBB",
"BB  zzxcvbbnnbbccxzkjhgddsapuutre9866221    BBBBBB",
"B   kzxccvvvvvccxzkjhhffsapiuytre97733     BBBBBBB",
"B  hjkzxcccvcccxzzkjhgfdsapiuytre886     BBBBBBBBB",
"B  hjkkzzxxxcxxzzkjhgffdsaiiutre98O    BBBBBBBBBBB",
"B  ghjjkzzzxzzzkkjhhgfdsapiuytre4    BBBBBBBBBBBBB",
"   gghjjjkkkkkkjjhggfdsappiuyte    BBBBBBBBBBBBBBB",
"  @ffghhjjjjjjjhhggfdssapiuyt    BBBBBBBBBBBBBBBBB",
"  sdffggghhhhhhhgffddsapiiu    BBBBBBBBBBBBBBBBBBB",
"  asddffggggggffffdssapii     BBBBBBBBBBBBBBBBBBBB",
"  aassdfdfffffffddsaappiu     BBBBBBBBBBBBBBBBBBBB",
"  ipaassddddsddsssaapiiuytr    BBBBBBBBBBBBBBBBBBB",
"  #ppaaaasssssasaappiiuyytre9    BBBBBBBBBBBBBBBBB",
"   iiippaaaaaaappiiiuuytrre9977    BBBBBBBBBBBBBBB",
"B  yuiipipipppipiiuuyyttree88763=    BBBBBBBBBBBBB",
"B  yyyuuuiiuiuuuuyuyttrre998766211o    BBBBBBBBBBB",
"B  tyyyyuyuuuuuuyyttrrre9887663211<<     BBBBBBBBB",
"B   rttttytyytytttrrree9887633211<<<<<    BBBBBBBB",
"BB  errrrrttrttrreee998877633211<<<<<<<<    BBBBBB",
"BB  .9eeeerereeeee9998876663211<<<<<<<<<<<    BBBB",
"BBB  9899e9e9e9999887776632211<<<<<<<<<<<<<&    BB",
"BBB   8889899988877776633211<<<<<<<<<<<<<<<<<X    ",
"BBBB  7777777777777663322111<<<<<<<<<<<<<<<<<<<  B",
"BBBB   6676776666633322111<<<<<<<<<<<<<<<<<<<<   B",
"BBBBB   3363336332322111<<<<<<<<<<<<<<<<<<<<<   BB",
"BBBBBB   2222222121111<<<<<<<<<<<<<<<<<<<<<<   BBB",
"BBBBBBB   112111111<<<<<<<<<<<<<<<<<<<<<<<<   BBBB",
"BBBBBBBB   1<11<<<<<<<<<<<<<<<<<<<<<<<<<<<   BBBBB",
"BBBBBBBBB   ,<<<<<<<<<<<<<<<<<<<<<<<<<<<<   BBBBBB",
"BBBBBBBBBB    <<<<<<<<<<<<<<<<<<<<<<<<<    BBBBBBB",
"BBBBBBBBBBBB    <<<<<<<<<<<<<<<<<<<<<     BBBBBBBB",
"BBBBBBBBBBBBB     *<<<<<<<<<<<<<<<>     BBBBBBBBBB",
"BBBBBBBBBBBBBBB       $<<<<<<<%       BBBBBBBBBBBB",
"BBBBBBBBBBBBBBBBBB                 BBBBBBBBBBBBBBB",
"BBBBBBBBBBBBBBBBBBBBBB         BBBBBBBBBBBBBBBBBBB"
};
