/* XPM */
static char *result[] = {
/* columns rows colors chars-per-pixel */
"50 50 180 2 ",
"   c #221E1F",
".  c #231E1F",
"X  c #231D20",
"o  c #231E20",
"O  c #231F20",
"+  c #221F21",
"@  c #231F21",
"#  c #241E20",
"$  c #241F20",
"%  c #241F21",
"&  c #222020",
"*  c #232021",
"=  c #242021",
"-  c #262223",
";  c #262722",
":  c #262224",
">  c #262324",
",  c #282425",
"<  c #282526",
"1  c #2A2728",
"2  c #2B292B",
"3  c #2D2A2B",
"4  c #2D2B2C",
"5  c #2F2B2C",
"6  c #312E30",
"7  c #312F30",
"8  c #343031",
"9  c #343133",
"0  c #343233",
"q  c #363234",
"w  c #373537",
"e  c #373637",
"r  c #373638",
"t  c #383638",
"y  c #3A3738",
"u  c #39393A",
"i  c #3B383A",
"p  c #3B3A3C",
"a  c #3E3A3C",
"s  c #3D3C3E",
"d  c #3E3D3F",
"f  c #403D3E",
"g  c #423E3F",
"h  c #4C3C3A",
"j  c #513F3D",
"k  c #444446",
"l  c #454547",
"z  c #474546",
"x  c #474749",
"c  c #48494B",
"v  c #494A4D",
"b  c #4B4A4D",
"n  c #4D4A4C",
"m  c #505153",
"M  c #515155",
"N  c #525356",
"B  c #525456",
"V  c #525457",
"C  c #535557",
"Z  c #585555",
"A  c #595657",
"S  c #56585B",
"D  c #58585B",
"F  c #58595D",
"G  c #595B5E",
"H  c #585C5F",
"J  c #595C5F",
"K  c #5A5C5F",
"L  c #635453",
"P  c #615E5E",
"I  c #615E5F",
"U  c #7B5C58",
"Y  c #5A5C60",
"T  c #5A5E60",
"R  c #5C5F61",
"E  c #606366",
"W  c #63676B",
"Q  c #666768",
"!  c #666B6E",
"~  c #6D7276",
"^  c #6E7276",
"/  c #6E7376",
"(  c #6E7277",
")  c #6E7478",
"_  c #6F7579",
"`  c #72787B",
"'  c #72787C",
"]  c #737A7E",
"[  c #747A7D",
"{  c #7A797A",
"}  c #957068",
"|  c #807E7E",
" . c #50943D",
".. c #5EB745",
"X. c #60BB46",
"o. c #8A836A",
"O. c #B1A26A",
"+. c #D5C47D",
"@. c #797F83",
"#. c #817F80",
"$. c #7A8082",
"%. c #7A8084",
"&. c #7A8185",
"*. c #7B8186",
"=. c #7C8287",
"-. c #7C8387",
";. c #7E8489",
":. c #7E858A",
">. c #7F868A",
",. c #7F868B",
"<. c #7F878B",
"1. c #82898E",
"2. c #8F8D8D",
"3. c #858C91",
"4. c #918F90",
"5. c #889095",
"6. c #899196",
"7. c #8A9297",
"8. c #8B9499",
"9. c #8C959A",
"0. c #8D969B",
"q. c #8E969B",
"w. c #8E979C",
"e. c #8F979C",
"r. c #8E979D",
"t. c #8F979D",
"y. c #8E989C",
"u. c #8F989C",
"i. c #8E989D",
"p. c #8F989D",
"a. c #9FA1A3",
"s. c #A8A7A7",
"d. c #A9A7A7",
"f. c #AAA8A9",
"g. c #ADABAB",
"h. c #ADACAC",
"j. c #B0ADAE",
"k. c #AEAEB0",
"l. c #B4B2B2",
"z. c #B8B9BB",
"x. c #BBBBBD",
"c. c #BCBDBF",
"v. c #C08E85",
"b. c #E3A69A",
"n. c #E3A79A",
"m. c #F8B5A7",
"M. c #F8B6A7",
"N. c #F9B6A8",
"B. c #F0DE8B",
"V. c #F3DF8C",
"C. c #FEEA93",
"Z. c #FFEA93",
"A. c #FEEB93",
"S. c #FFEB93",
"D. c #C1C0C0",
"F. c #C3C4C6",
"G. c #C5C5C5",
"H. c #C7C7C9",
"J. c #CBCACA",
"K. c #CACBCD",
"L. c #CACCCE",
"P. c #CBCCCE",
"I. c #CFCECE",
"U. c #D2D1D2",
"Y. c #D5D5D5",
"T. c #D6D5D5",
"R. c #DDDCDC",
"E. c gray88",
"W. c #E4E4E4",
"Q. c gray92",
"!. c #EFEEEE",
"~. c gray94",
"^. c #F5F4F4",
"/. c #F8F8F8",
"(. c #F9F9F9",
"). c gray98",
"_. c gray99",
"`. c #FEFEFE",
"'. c white",
"]. c None",
/* pixels */
"].].].].].].].].].].].].].].].].].].].].].].].].].].].].].].].].].].].].].].].].].].].].].].].].].].",
"].].].].].].].].].].].].].].].].].].].].].].].].].].].].].].].].].].].].].].].].].].].].].].].].].].",
"].].].].].].].].].].].].].].].].].].].].].].].].].].].].].].].].].].].].].].].].].].].].].].].].].].",
"].].].].].].].].].].].].].].].].].].].].].].].].].].].].].].].].].].].].].].].].].].].].].].].].].].",
"].].].].].].].].].].].].].].].].].].].].].].].].].].].].].].].].].].].].].].].].].].].].].].].].].].",
"].].].].].].].].].].].].].].].].].].].].].].].].].].].].].].].].].].].].].].].].].].].].].].].].].].",
"].].].].].].].].].].].].].].].].].].].].].].].].].].].' & ].].].].].].].].].].].].].].].].].].].].].",
"].].].].].].].].].].].].].].].].].].].].].].].].].].p.h ].].].].].].].].].].].].].].].].].].].].].].",
"].].].].].].].].].].].].].].].].].].].].].].].].].r.L ].].].].].].].].].].].].].].].].].].].].].].].",
"].].].].].].].].].].].].].].- ].].].].].].].].].%.p.N.].].].].].].].].].].].].].].].].].].].].].].].",
"].].].].].].].].].].].].].].].S ].].].].].].].= p.U N.].].].].].].].].].].].].].].].].].].].].].].].",
"].].].].].].].].].].].].].].].H ^ ^ ^ 9.S ,.].p.r.M.N.].].].].].].].].].].].].].].].].].].].].].].].",
"].].].].].].].].].].].].].].].p.p.o ].u.u.p.p.p.p.N.N.].].].].].].].].].].].].].].y O ].].].].].].].",
"].].].].].].].].].].].].].].].( p._ u.p.O p u.p.r N.v.j ].].].].].].].].].].].].].W.'.].].].].].].].",
"].].].].].].].].].].].].].].].].,.p.p.O O p.p.p.0.b.N.m.].].].].].].].].].].].].O '.'.].].].].].].].",
"].].].].].].].].].].].].].].].O p.p.p.u.u.p.p.p.p.6.N.N.].].].].].].].].].].].7 ).'.'.O ].].].].].].",
"].].].].].].].].].].].].].].].O p.y.3 >.p.p.e.p.Y p.N.m.].].].].].].].].].0 p.p.Q `.'.].].].].].].].",
"].].].].].].].].].].].].].].].p.p.D p.Z.u.p.p.p.*.p.n.N.].].].].].].].].# p.p.p.p.u.g.].].].].].].].",
"].].].].].].].].].].].].].].].&.p.{ $.Z.p.p.u.@.p.p.m.} ].].].].].].].].9.p.p.p.p.;.].].].].].].].].",
"].].].].].].].].].].].].].].].B.P.F.O.Z.[ 5.p.q.p.p.N.].].].].].].].].].p.p.p.p.c ].].].].].].].].].",
"].].].].].].].].].].].].].].].A.P.P.C.V.:.p.8.p.p.p.p.: ].].].].].].].].p.p.p.p.].].].].].].].].].].",
"].].].].].].].].].].].].].].].S.g L.+.X.p.%.e.p.p.p.i.u.].].].].].].].].%.p.p.p.].].].].].].].].].].",
"].].].].].].].].].].].o ].].].A.X.P.o. .B 5.p.q.J d p.p.] ].].].].].].].O p.p.p.k ].].].].].].].].].",
"].].].].].].].].].].].].X ].].9 O L.x...i p.-./.'.'.0.t ].].].].].].].].].p.p.p.p.].].].].].].].].].",
"].].].].].].].].].].].].].$ u p.; P.f.'.'.z '.'.'.j.T.@ ].].].].].].].].. p.p.p.p.].].].].].].].].].",
"].].].].].].].].].].].].].].C 8.'.2.P '.).'.'.D.'.'.'.U.].].].].].o p.p.p.p.F p.8.'.'.'.].].].].].].",
"].].].].].].].].].].].].].].e.l.^.O `.'.'.'.'.p.'.'.'.Q.].].].].v p.p.p.u.p.p.p.= `.'.'.'.#.].].].].",
"].].].].].].].].].].].].].].p.p.'.'.'.O 4.'.'.b '.'.`.d.l ].].p.p.u.u.y.p.u.u.u.E '.'.'.'.'.Y.].].].",
"].].].].].].| R.].].].].].].].].s `.'.'.'.Z '.'.'.'.~.&.p.p.p.u.w.p.p.p.u.p.p.p.p.'.'.(.'.'.'., ].].",
"].].].].].!.`.'.`.].].].].].].. p.a _.'.G.'.'.'.'.'.I p.p.u.u.p.p.p.p.p.p.p.p.p.p.T '.p.).'.'.'.'.].",
"].].].].(.'.`.'.`.~ ].].].].].p.p.p.p.> 4 '.'.'.'.N p.p.p.u.u.p.p.p.p.p.p.p.p.p.p.u.p.p.m '.'.'.'.5 ",
"].8 !.'.'.'.'.'.`.p.W ].].].* p.p.y.x p.p.'.E.`.p.p.i.u.p.p.p.u.y.p.p.p.u.p.p.p.p.p.R p.p.'.'.'.'.= ",
"  '.'.'.`.`.'.`.'.p.p.p.].].p.p.u.p.p.p.P.Y.-.p.1 u.p.p.u.e p.p.p.u.u.y.p.u.u.u.y.p.u.u.p.s.'.'.4.].",
"A '.'.'.'.'.'.'.'.p.p.p.p.t.p.p.p.y.u.3.P.p.u.p.p.G p.u.p.p.p.u.w.p.p.p.u.p.p.p.p.p.p.! p.i.I.'.'.].",
"h.'.].'.'.'.].'.`.p.p.p.p.1.p.p.p.p.<.].].c.p.p.p.p.2 M p.u.u.p.p.p.p.p.=.p.p.p.p.u.p.p.p.e.'.o ].].",
"].].].J.'.`.].'.`.p.p.p.p.t.p.p.p.p.].].].z.p.p.p.p.p.K p.u.u.p.p.p.p.p.p.6.p.p.p.u.p.p.p.e.].].].].",
"].].].'.'.o ].'.`.p.p.p.p.p.e.p.p.].].].].].6 p.p.p.i.u.p.p.f u.y.p.p.p.u.a.k.p.p.p.p.p.p.p.o ].].].",
"].].].'.`.O ].O '.O p.p.u.p.p.p.O ].].].].].].p.u.u.p.p.u.p.V P.P.P.P.L.P.P.n O y.p.u.u.p.p.].].].].",
"].].O '.5 ].].].].].p.p.p.t.p.` ].].].].].].].+ p.p.p.u.p.p.p.P.K.H.q ].].].].].].< p.p.p.7.].].].].",
"].].].].].].].].].].].p.p.t.) ].].].].].].].].].6.p.p.p.p.u.u.].].].].].].].].].].].].].].].].].].].",
"].].].].].].].].].].].].E O ].].].].].].].].].].].p.p.p.p.u./ ].].].].].].].].].].].].].].].].].].].",
"].].].].].].].].].].].].].].].].].].].].].].].].].].i.u.p.p.% ].].].].].].].].].].].].].].].].].].].",
"].].].].].].].].].].].].].].].].].].].].].].].].].].].w u.p.].].].].].].].].].].].].].].].].].].].].",
"].].].].].].].].].].].].].].].].].].].].].].].].].].].].].].].].].].].].].].].].].].].].].].].].].].",
"].].].].].].].].].].].].].].].].].].].].].].].].].].].].].].].].].].].].].].].].].].].].].].].].].].",
"].].].].].].].].].].].].].].].].].].].].].].].].].].].].].].].].].].].].].].].].].].].].].].].].].].",
"].].].].].].].].].].].].].].].].].].].].].].].].].].].].].].].].].].].].].].].].].].].].].].].].].].",
"].].].].].].].].].].].].].].].].].].].].].].].].].].].].].].].].].].].].].].].].].].].].].].].].].].",
"].].].].].].].].].].].].].].].].].].].].].].].].].].].].].].].].].].].].].].].].].].].].].].].].].].",
"].].].].].].].].].].].].].].].].].].].].].].].].].].].].].].].].].].].].].].].].].].].].].].].].].]."
};
