/* XPM */
static char *result[] = {
/* columns rows colors chars-per-pixel */
"50 50 212 2 ",
"   c #060303",
".  c #0A0504",
"X  c #0E0A09",
"o  c #0D0807",
"O  c #160B06",
"+  c #1A0D05",
"@  c #130D0C",
"#  c #1A0F09",
"$  c #120703",
"%  c #1D120D",
"&  c #1B1009",
"*  c #140F10",
"=  c #161212",
"-  c #1A1514",
";  c #1D1A1B",
":  c #1B1719",
">  c #23150B",
",  c #26180D",
"<  c #2B1B0C",
"1  c #201207",
"2  c #301E0D",
"3  c #201613",
"4  c #231915",
"5  c #2B1D14",
"6  c #231C1B",
"7  c #291E1B",
"8  c #301F11",
"9  c #35220F",
"0  c #2B211E",
"q  c #2F2014",
"w  c #342213",
"e  c #392718",
"r  c #3C2A1B",
"t  c #392616",
"y  c #221F20",
"u  c #252223",
"i  c #2B2423",
"p  c #2E2A2B",
"a  c #322621",
"s  c #352A25",
"d  c #3B2B23",
"f  c #352D2C",
"g  c #3C2E2A",
"h  c #3D312D",
"j  c #312E31",
"k  c #3B3231",
"l  c #38363B",
"z  c #2E2C30",
"x  c #593E09",
"c  c #452E16",
"v  c #422E1B",
"b  c #46311D",
"n  c #4C351D",
"m  c #4E3925",
"M  c #43332D",
"N  c #4A3525",
"B  c #513B28",
"V  c #433632",
"C  c #453A36",
"Z  c #4B3A35",
"A  c #463B39",
"S  c #4C3E3A",
"D  c #483630",
"F  c #513F38",
"G  c #402F2A",
"H  c #735812",
"J  c #5A422A",
"K  c #4D413D",
"L  c #53433D",
"P  c #5A473D",
"I  c #634A2E",
"U  c #644C35",
"Y  c #755B38",
"T  c #6A5033",
"R  c #3E3D42",
"E  c #4E4341",
"W  c #454247",
"Q  c #544642",
"!  c #564945",
"~  c #5B4A44",
"^  c #564B49",
"/  c #5B4E4A",
"(  c #5D514D",
")  c #4D4C54",
"_  c #5C5353",
"`  c #55535A",
"'  c #504F57",
"]  c #614E46",
"[  c #63534C",
"{  c #69554C",
"}  c #665449",
"|  c #645651",
" . c #685750",
".. c #645955",
"X. c #6B5B54",
"o. c #655B59",
"O. c #6B5E5A",
"+. c #705F56",
"@. c #705F58",
"#. c #71594A",
"$. c #6E605B",
"%. c #756155",
"&. c #73625B",
"*. c #7A675D",
"=. c #7B665B",
"-. c #5D5C64",
";. c #696366",
":. c #736661",
">. c #756864",
",. c #7B6B63",
"<. c #766B68",
"1. c #7D706B",
"2. c #75737B",
"3. c #8C702E",
"4. c #836B5D",
"5. c #907844",
"6. c #816E64",
"7. c #806F69",
"8. c #8A7163",
"9. c #84736B",
"0. c #8A756A",
"q. c #887669",
"w. c #91786B",
"e. c #8C7A73",
"r. c #867C7C",
"t. c #877874",
"y. c #927D72",
"u. c #907F79",
"i. c #A78A36",
"p. c #99824D",
"a. c #A18F5D",
"s. c #BCA24C",
"d. c #93827C",
"f. c #9B857B",
"g. c #988276",
"h. c #88807A",
"j. c #AD9A61",
"k. c #A28A7F",
"l. c #B5A673",
"z. c #C3AA58",
"x. c #C8B269",
"c. c #7B7B84",
"v. c #85848B",
"b. c #9B8A83",
"n. c #988985",
"m. c #8B8C94",
"M. c #9A9699",
"N. c #A38D83",
"B. c #A4938C",
"V. c #AB948B",
"C. c #A89187",
"Z. c #AC9A94",
"A. c #AB9D99",
"S. c #A59995",
"D. c #B19C94",
"F. c #B19F99",
"G. c #AEA19E",
"H. c #B4A29B",
"J. c #BAA59D",
"K. c #BFA89F",
"L. c #9C9CA4",
"P. c #9FA2AD",
"I. c #A1A4AF",
"U. c #A9A5A7",
"Y. c #B2A5A1",
"T. c #BBAAA4",
"R. c #BDAEAA",
"E. c #B7A9A5",
"W. c #BCB1AA",
"Q. c #A7A9B3",
"!. c #B9B5B8",
"~. c #AEB0BA",
"^. c #C7B38F",
"/. c #C2ADA5",
"(. c #C1AFA9",
"). c #C4B2AC",
"_. c #CAB4AC",
"`. c #C8B3A9",
"'. c #C2B6B2",
"]. c #C5B9B5",
"[. c #CABDBB",
"{. c #C8BAB6",
"}. c #D3BEB4",
"|. c #D0B8AD",
" X c #D5C894",
".X c #C7C2A0",
"XX c #CBC7B7",
"oX c #D5C3BC",
"OX c #D9C5BD",
"+X c #D9D2AE",
"@X c #B8BAC2",
"#X c #BEC0C9",
"$X c #CBC2C1",
"%X c #C3C5CE",
"&X c #CDC7CA",
"*X c #D6CBC8",
"=X c #DBD7C5",
"-X c #CACCD4",
";X c #D4D5D7",
":X c #CFD1D9",
">X c #E1D8D4",
",X c #E0DEC7",
"<X c #E1E0CD",
"1X c #EAE5DD",
"2X c #D9DCE3",
"3X c #DEE1E8",
"4X c #E7E7E7",
"5X c #E8ECF2",
"6X c #EFF2F8",
"7X c #FCFCFD",
"8X c #F7F8FA",
"9X c None",
/* pixels */
"9X9X9X9X9X9X9X9X9X9X9X9X9X9X9X9X9X9X9X9X9X9X9X9X9X9X9X9X9X9X9X9X9X9X9X9X9X9XK 9X9X9X9X9X9X9X9X9X9X9X",
"9X9X9X9X9X9X9X9X9X9X9X9X9X9X9X9X9X9X9X9X9X9X9X9X9X9X9X9X9X9X9X9X9X9X9X9X$.| { | 9X9X9X9X9X9X9X9X9X9X",
"9X9X9X9X9X9X9X9X9X9X9X9X9X9X9X9X9X9X9X9X9X9X9X9X9X9X9X9X9X9X9X9X9X9Xh.6.&.$.~ %.9X9X9X9X9X9X9X9X9X9X",
"9X9X9X9X9X9X9X9X9X9X9X9X9X9X9X9X9X9X9X9X9X9X9X9X9X9X9X9X9X9X9X9X*.,.=.*.6.$.$.&.( 9X9X9X9X9X9X9X9X9X",
"9X9X9X9X9X9X9X9X9X9X9X9X9X9X9X9X9X9X9X9X9X9X9X9X9X9X9X9X9XR.9.e.g.1.q.%.=.+.1X6.XXO.9X9X9X9X9X9X9X9X",
"9X9X9X9X9X9X9X9X9X9X9X9X9X9X9X9X9X9X9X9X9X9X9X9X9X9X9X9Xn.B.B.n.d.g.X.6.,. X,X<X<X+X9X9X9X9X9X9X9X9X",
"9X9X9X9X9X9X9X9X9X9X9X9X9X9X9X9X9X9X$Xl 2XI.v._ k M.l Z.{._.f.e.h.q.e.9.*. X<X<X<Xp.' 9X9X9X9X9X9X9X",
"9X9X9X9X9X9X9X9X9X9X9X9X9X6X#XM.v.) R u p o.XX].' -.&X&X>XJ.Z.b.f.f.q.#.8. X1X;Xx.Y E 9X9X9X9X9X9X9X",
"9X9X9X9X9X9X9X9X9X9X9X2XR u q K 9X9X9X9X% S.f.D.f.T.n.~.[.b.Z.f.N.e.g.'.f..X<X+X3.U ~ ^ 9X9X9X9X9X9X",
"9X9X9X9X9X9X9X9X9X9X9XP.9X9X9X9X9X9X9X9X,.e.D.b.d.n.k %XS N.W.B.`.q.g.P ( =X&Xs.3.Z X.A 9X9X9X9X9X9X",
"9X9X9X9X9X9X9X9X9X9X9X-X9X9X9X9X9X9X,.,.,.,.<.Q @ * : W :XG.&Xu.M.f.,.f : .XXXi.J i ! [ ( 9X9X9X9X9X",
"9X9X9X9X9X9X9X9X9X9X9Xc.9X9X9X9X..e.e.{ / o.Q | 0 6 M.7X:XQ.m.C i %.e.{ W..XZ.3.< u f K D 9X9X9X9X9X",
"9X9X9X9X9X9X9X9X9X9X9X;.9X9X:.,.X.Q Q A A / d.7X@XR p u ( :XF.J.i > P.r.;X3Xp.a.b.0 D ( :.f 9X9X9X9X",
"9X9X9X9X9X9X9X9X9X9X9X7 U.&.1.@.V A Q -X@XR f ../ V @ ; L.-.r.J.K u *.' XX3Xj.l.U.h A :.^ ~ 9X9X9X9X",
"9X9X9X9X9X9X9X9X9X9X9X:.:XO.L / #X-.u h [ [ X.&.&X&.y   ..m.y A.i - P L s.l.i.j.d.M O._ [ L X.9X9X9X",
"9X9X9X9X<.v.5X9X9XO.<...m.~.-.p i ( X.>.[ e.B.(.*X]./ @ 6 u <.e.n.= z $.1 H H H 5.f ! ^ X.Z Q 9X9X9X",
"9X9X9X9X= 9X; v.<.L.m.l 6 i / [ /  .g.9.d.b.A.].[.!.d.a   p L.!.h 2.s * ` w < x x h ^ [ [ [ Q / 9X9X",
"9X9X9X* 9XO.O.O.l 4 A / - 2...@.X.] ,.e.d.n.E.A.*XW.&X_ @ - ` c.t.0 t.n.i = =   o ..9.[ ~ P &.S 9X9X",
"9X9X9X; | :.| . ^ h Q S ! %XX.6./ 1.9.>.Z.B.].T.[.'.t.t.- ; ' m.Y.^ d.N.4 / @ D S ( *.9.&.Q C Z C 9X",
"9XE S ..~ p k 6 A E L / [ v.:.L ,.*.7.e.b.Y.B.H.E.'.[.{.p o 6 u _ ~ V.H.B.e.M ..d.$.*... .L ~ { S 9X",
" .( ^ [ *   4 K E K S / ] W 9./ %.*.*.B.d.R.].*X(.E.>X].L @ - -.2XP J.w.s ,.t.X.X.X.N { &.r { [ e / ",
"C / ^ ! / o Q S L D { @.[ 6 6X>.,.9.9.b.b.G.'.Y.(.R.).F.X.; 6 * 3 = N.f.} N.X.[ O.[ *.} &.8.M L 4 > ",
"Z ~ ! ! S g ^ g ! ..X.&.7...%X,.Q L *.d.e.B.A.A.S.Y.9.%.S.i X   : - oX*.P f.f.,.,.] %.q.%.Q 4 O > 1 ",
"9X~ S / ! ~ Q ! S / &.] &.:.c.e.X.9.,.,.{ Y.W.t.(.=.d.*XT.Z : ; 4XX.w.N.X.b.4.B.~ 8.4.+.A O , 1 w a ",
"9X[ ! K K L L ! ^ X.o.,.b.7.R M.@.,.7.&.d.R.A.B.&.J.$X4X7X7X3XI.' /.+ 8.g.C.6.y.4.[ $.O 5 $ 4 5 1 9X",
"9XV :./ A Z K ( | O.:.,.[ O.i 5X~ @.&.t.u.>.u.$X8X8X-Xc.k i A Q . b.|.N.#.V.8.w.~ g 5 > + < , e 9X9X",
"9XK _ / | d L ( ../ Q L X.X./ I.>.t.,.M.4X7X%Xc.j f / T.n.* 6 X = 3 F.D.J.V.y.M 1 e , 8 , , > 9X9X9X",
"9XK <.( _ = e ^ k _ @.&./ / | * I.6X5XL.) f ^ ;.(./.%Xj 3 >X~ = = J.T.V.oXD.# e + 8 < > 5 9X9X9X9X9X",
"9X9X<.7 = 4 > _ E V ....o./ ! / : y k o.r.R.R.A.).~.# }._.}.+.4 0 D.J.0.+ < 9 8 9 , < 9X9X9X9X9X9X9X",
"9X9X/ u S E $ ..E [ O.o./ Q / [ | 9.@.`.R.n._.{.;.i |.|.|.(.T.3 E.V.S e t < t w < 9X9X9X9X9X9X9X9X9X",
"9X9X; ^ S Q O ^ K A | @.| / &.] [ [ 7.~ B.}.$Xa n.}.`._.`.Y.S D B., b 9 9 9 , 2 9X9X9X9X9X9X9X9X9X9X",
"9X9Xr.M S h   S Q S Q ~ ~ ~  .[ u.9.B.D.}.M.7 b.`.*X[.(.{.e / 1 c w 9 9 > t 9X9X9X9X9X9X9X9X9X9X9X9X",
"9X9Xg ! A 6 h C K C Z S X.+.~ { 9.y.f.t.r.7 V.'.}.|._.}.K g 2 c 9 b r + 5 9X9X9X9X9X9X9X9X9X9X9X9X9X",
"9X9Xa V 4 a C S Z K L Q  .O.9.%.U k.N.;.7 9.(.oX*XZ.@.d { n 9 c c # w 9X9X9X9X9X9X9X9X9X9X9X9X9X9X9X",
"9X9X9Xa f K L F ~ Z Q / 9. .+.f.9.J.<.7 t./.}.D._.6.1 B 9 n n & N r 9X9X9X9X9X9X9X9X9X9X9X9X9X9X9X9X",
"9X9X9Xi L h D M h Q S ~  .w.w.4.y.<.3 9./.J.,.`.5 8 I m T B 1 r 9X9X9X9X9X9X9X9X9X9X9X9X9X9X9X9X9X9X",
"9X9X9X/ C L M D D +.S Z #.8.8.8.E - y./.F.B.w v c c T n , D 5 9X9X9X9X9X9X9X9X9X9X9X9X9X9X9X9X9X9X9X",
"9X9X9Xd Z K X.{ F P P ] =.4.k.u 0 V.D.D.X.5 J c I c N J d 9X9X9X9X9X9X9X9X9X9X9X9X9X9X9X9X9X9X9X9X9X",
"9X9X9Xg F S Z L ] [ P L ,.Q o &.g.b.&.A r < m I B v m 9X9X9X9X9X9X9X9X9X9X9X9X9X9X9X9X9X9X9X9X9X9X9X",
"9X9X9X9XL S Q Z d ~ +...@   ] S L O w J v I J r D 9X9X9X9X9X9X9X9X9X9X9X9X9X9X9X9X9X9X9X9X9X9X9X9X9X",
"9X9X9X9XD C Q L  .C =   d @.6.3 < B 1 T r < B 9X9X9X9X9X9X9X9X9X9X9X9X9X9X9X9X9X9X9X9X9X9X9X9X9X9X9X",
"9X9X9X9XD ~ F L ;   3 ] ~ + 3 n < n b e < q 9X9X9X9X9X9X9X9X9X9X9X9X9X9X9X9X9X9X9X9X9X9X9X9X9X9X9X9X",
"9X9X9X9XF L Z 7 @ Z ] 7 # e > v b N , m 9X9X9X9X9X9X9X9X9X9X9X9X9X9X9X9X9X9X9X9X9X9X9X9X9X9X9X9X9X9X",
"9X9X9X9XF [ L M ~ P 1 , 2 8 t v , e 9X9X9X9X9X9X9X9X9X9X9X9X9X9X9X9X9X9X9X9X9X9X9X9X9X9X9X9X9X9X9X9X",
"9X9X9X9X9XX.S F $ + 5 , v t 1 5 4 9X9X9X9X9X9X9X9X9X9X9X9X9X9X9X9X9X9X9X9X9X9X9X9X9X9X9X9X9X9X9X9X9X",
"9X9X9X9X9XF $ o d r , e , 7 , 9X9X9X9X9X9X9X9X9X9X9X9X9X9X9X9X9X9X9X9X9X9X9X9X9X9X9X9X9X9X9X9X9X9X9X",
"9X9X9X9X9X@ , + , r , & % 9X9X9X9X9X9X9X9X9X9X9X9X9X9X9X9X9X9X9X9X9X9X9X9X9X9X9X9X9X9X9X9X9X9X9X9X9X",
"9X9X9X9X9X+ , 5 , % , 9X9X9X9X9X9X9X9X9X9X9X9X9X9X9X9X9X9X9X9X9X9X9X9X9X9X9X9X9X9X9X9X9X9X9X9X9X9X9X",
"9X9X9X9X9X# 4 + % 9X9X9X9X9X9X9X9X9X9X9X9X9X9X9X9X9X9X9X9X9X9X9X9X9X9X9X9X9X9X9X9X9X9X9X9X9X9X9X9X9X",
"9X9X9X9X9X& 9X9X9X9X9X9X9X9X9X9X9X9X9X9X9X9X9X9X9X9X9X9X9X9X9X9X9X9X9X9X9X9X9X9X9X9X9X9X9X9X9X9X9X9X"
};
