/* XPM */
static char *result[] = {
/* columns rows colors chars-per-pixel */
"50 50 129 2 ",
"   c black",
".  c #010101",
"X  c #020202",
"o  c gray1",
"O  c #040404",
"+  c gray2",
"@  c #060606",
"#  c #070707",
"$  c gray3",
"%  c #090909",
"&  c gray4",
"*  c #0B0B0B",
"=  c gray5",
"-  c gray6",
";  c #101010",
":  c gray7",
">  c gray8",
",  c #151515",
"<  c #161616",
"1  c #181818",
"2  c #191919",
"3  c #1D1D1D",
"4  c #1E1E1E",
"5  c #202020",
"6  c #252525",
"7  c gray15",
"8  c #282828",
"9  c gray16",
"0  c #2F2F2F",
"q  c gray19",
"w  c #323232",
"e  c gray20",
"r  c #393939",
"t  c gray24",
"y  c #3E3E3E",
"u  c gray25",
"i  c #444444",
"p  c #464646",
"a  c gray28",
"s  c #4B4B4B",
"d  c #4C4C4C",
"f  c #4E4E4E",
"g  c gray31",
"h  c #515151",
"j  c gray32",
"k  c #555555",
"l  c gray34",
"z  c gray35",
"x  c #5A5A5A",
"c  c #5B5B5B",
"v  c gray36",
"b  c gray37",
"n  c #5F5F5F",
"m  c #606060",
"M  c gray38",
"N  c #626262",
"B  c gray39",
"V  c #656565",
"C  c gray40",
"Z  c #676767",
"A  c #686868",
"S  c DimGray",
"D  c #6A6A6A",
"F  c gray42",
"G  c #6C6C6C",
"H  c #6D6D6D",
"J  c gray44",
"K  c #717171",
"L  c #727272",
"P  c gray45",
"I  c #747474",
"U  c gray46",
"Y  c #767676",
"T  c #777777",
"R  c gray47",
"E  c gray48",
"W  c #7B7B7B",
"Q  c gray49",
"!  c #7E7E7E",
"~  c gray50",
"^  c #808080",
"/  c #818181",
"(  c #848484",
")  c gray52",
"_  c #888888",
"`  c #898989",
"'  c gray54",
"]  c #8B8B8B",
"[  c gray55",
"{  c #8D8D8D",
"}  c #8E8E8E",
"|  c gray56",
" . c #909090",
".. c gray57",
"X. c #929292",
"o. c #939393",
"O. c gray60",
"+. c #9F9F9F",
"@. c gray66",
"#. c #A9A9A9",
"$. c #AEAEAE",
"%. c #AFAFAF",
"&. c gray69",
"*. c gray70",
"=. c #BBBBBB",
"-. c #C5C5C5",
";. c #CACACA",
":. c gray80",
">. c #CECECE",
",. c gray81",
"<. c #D0D0D0",
"1. c #D2D2D2",
"2. c LightGray",
"3. c gray84",
"4. c #D8D8D8",
"5. c gray85",
"6. c #DADADA",
"7. c gray86",
"8. c #EAEAEA",
"9. c #ECECEC",
"0. c #F3F3F3",
"q. c #F4F4F4",
"w. c #F9F9F9",
"e. c gray98",
"r. c gray99",
"t. c #FDFDFD",
"y. c #FEFEFE",
"u. c white",
"i. c None",
/* pixels */
"i.i.i.i.i.i.i.i.i.i.i.i.i.i.i.i.i.i.i.i.i.i.i.i.i.i.i.i.i.i.i.i.i.i.i.i.i.  i.i.i.i.i.i.i.i.i.i.i.i.",
"i.i.i.i.i.i.i.i.i.i.i.i.i.i.i.i.i.  2 9 i.i.i.i.i.i.i.i.i.i.i.i.i.  7 6.  5.m T ;.  i.i.i.i.i.i.i.i.",
"i.i.i.i.i.i.i.i.i.i.i.i.i.i.i.  X.Y   o   i.i.i.i.i.i.i.i.i.i.i.  5.5.4. .5.f 5.. &.i.i.i.i.i.i.i.i.",
"i.i.i.i.i.i.i.i.i.i.*   i.  U Y   i.i.i.    i.i.i.i.i.i.i.i.i.i.| | 4 5.[ 5.5.e &.&.i.i.i.i.i.i.i.i.",
"i.i.i.i.i.i.i.i.i.i.  T W I   i.i.i.i.i.i.    i.i.i.i.i.i.i.i.  | ; | . q.    &.S &.i.i.i.i.i.i.i.i.",
"i.i.i.i.i.i.i.i.O ..Y Y   ..  i.i.i.i.i.i.i.f X i.i.i.i.i.i.i.| | y | | n &.&.&.  &.i.i.i.i.i.i.i.i.",
"i.i.i.i.i.  z ..Y j   i.i.  Y  .i.i.i.i.i.i.i.U i.i.i.i.i.i.i.| | @ | | d &.&.&.&.&.i.i.i.i.i.i.i.i.",
"i.i.i.i.  ..Y .   i.i.i.i.i.i.  Y   i.i.i.i.i.i.Y i.i.i.i.i.i.| | |   Y b f   &.&.&.i.i.i.i.i.i.i.i.",
"i.i.  ..Y @ i.i.i.  Y i.i.i.i.i.i.Z t r.u.  i.i.i.{ i.i.i.i.i.| i.| t ..f m m &.9 &.  i.i.i.i.i.i.i.",
"i.  ..J   i.i.i.i.  i.i.i.i.i.i.  u.  ]   u.V   i.    i.i.i.i.  i.| / |   m m &.m   i.i.i.i.i.i.i.i.",
"i.Y ..i.i.i.i.i.i.  < i.i.i.i.  u.u.u.  T ~ o.u.w.  C   i.z   i.i.| | | &.m + &.m   i.i.i.i.i.i.i.i.",
"i.f ..i.i.i.i.i.i.  R i.i.  u.u.u.u.u.u.u.  !   3.u.u.U   .       | | | &.  &.&.m $.i.i.i.i.i.i.i.i.",
"i.i.Q i.i.i.i.i.i.i.o.  u.u.u.u.u.u.u.u.u.u.  c | , ,.u...  n 0 | |   | %.&.  *.  &.i.i.i.i.i.i.i.i.",
"i.i.  ..i.i.i.i.i.i.# u.u.u.u.u.u.u.u.u.u.u.u.u.  Y   ,.p     . | | y } %.&.  &.&.    i.i.i.i.i.i.i.",
"i.i.i.Y   i.i.i.  ,.,.u.u.u.u.u.u.u.u.u.u.u.u.u.u.B x T     X   |  .y   X.&.&.&.s Y L u.u.$   i.i.i.",
"i.i.i.i.Y     u.u.,.,.,.,.y.u.u.u.u.u.u.u.u.u.u.u.u.    Y       | | y B (   &.m Y     u.u.u.u.u.    ",
"i.i.i.i.  _   u.u.u.u.u.,.,.,.,.u.u.u.u.u.u.u.u.u., n n       Y   | y | b m + Y     u.u.u.u.u.u.  :.",
"i.i.i.  u.  `   u.u.u.u.u.u.u.,.,.,.1.u.u.u.u.u.  A   J b i   Y + ] ) |   Y Y H M u.u.u.u.u.u.  ,.,.",
"i.  u.u.u.u.  !   u.u.u.u.u.u.u.u.,.,.,.,.u.u.  L   E   -   ,.  m m m m m Y Y m ,.u.u.u.u.u.  ,.,.,.",
"  u.u.u.u.u.u.  Y   u.u.u.u.u.u.u.u.u.,.,.,.  X Y R       ,.$ Y U Y Y Y Y Y c . >.u.u.u.u.  ,.,.,.,.",
"  u.u.u.u.u.u.u.5 Y X.+.u.u.u.u.u.u.u.u.u.  T Y     q   ,.,.i u 4 f g %       ,.u.u.u.u.  ,.,.,.,.,.",
"#.l     u.u.u.u.u.y.T ..  u.u.u.u.u.    0.V Y : U   B <.,.,.,.= ,.,.G     & ,.u.u.u.u.  ,.,.,.,.,.,.",
"  @.@.@.#.  u.u.u.u.u.x ..  u.u.u.  Y Y ..Y 1   Y   - u.,.,.,.' ,.,.,.,.,.,.u.u.u.u.  ,.,.,.,.,.,.,.",
"i.@.@.@.@.@.@.  u.u.u.u.. |   u.u.Y O   T   U T m   y.u.r.u.u...,.,.,.,.,.u.u.u.u.  ,.,.,.,.,.,.,.  ",
"i.@.@.@.@.@.@.@.3 v t.u.u.  ^   u.  m S Y ..    m ,.u.u.u.>.,...u.u.u.0.u.u.u.u.D ,.,.,.,.,.,.,.,.i.",
"i.@.@.@.@.@.@.@.@.@.  u.u.u.  Y   ~   P + 9 . l -.u.u.u.u.u.u.u.u.u.u.u.u.u.u.e.,.,.,.,.,.,.,.,.  i.",
"i.F @.@.@.@.@.@.@.@.@.@.  u.u.k Y   m + w a     u.u.u.u.u.u.u.u.u.u.u.u.u.u.u.1.,.,.,.,.,.,.,.,.i.i.",
"i.  @.@.@.@.@.@.@.@.@.@.@.  u.u.u.6 m h +   @ u.u.u.u.u.u.u.u.u.u.u.u.u.u.u.G ,.,.,.,.,.,.,.,.  i.i.",
"i.i.@.@.@.@.@.@.@.@.@.@.@.@.@.  u.m m m U   1 u.u.u.u.u.u.u.u.u.u.u.u.u.u.y ,.,.,.,.,.2.,.,.>.i.i.i.",
"i.i.@.@.@.@.@.@.@.@.@.@.@.@.@.@.@.m m m x ,.  u.u.u.u.u.u.u.u.u.u.u.u.u.  ,.,.,.,.,.>.,.,.,.i.i.i.i.",
"i.i.i.  @.@.@.@.@.@.@.@.@.@.@.@.@.  m   O.  r u.u.u.u.u.u.u.u.u.u.u.u.  ,.,.,.,.,.,.,.,.,.8 i.i.i.i.",
"i.i.i.i.  o.@.@.@.@.@.@.@.@.@.@.@.@.  N @.@.@.>   u.u.u.u.u.u.u.u.u.  ,.,.,.,.,.,.,.,.,.,.i.i.i.i.i.",
"i.i.i.i.i.i.  #.@.@.@.@.@.@.@.@.@.@.@.@.@.@.@.@.@.K   | u.u.u.u.u.8.,.,.,.,.,.,.,.,.,.,.  i.i.i.i.i.",
"i.i.i.i.i.i.i.i.  #.@.@.@.@.@.@.@.@.@.@.@.@.@.@.@.@.@.@.:   7.u.9.,.,.,.,.,.,.,.,.,.,.,.i.i.i.i.i.i.",
"i.i.i.i.i.i.i.i.i.i.  . @.@.@.@.@.@.@.@.@.@.@.@.@.@.@.@.@.@.@.@.  ,.,.,.,.,.,.,.,.,.,.  i.i.i.i.i.i.",
"i.i.i.i.i.i.i.i.i.i.i.i.  + @.@.@.@.@.@.@.@.@.@.@.@.@.@.@.@.@.@.#.,.,.,.,.,.,.,.,.,.1.i.i.i.i.i.i.i.",
"i.i.i.i.i.i.i.i.i.i.i.i.i.i.  > @.@.@.@.@.@.@.@.@.@.@.@.@.@.@.@.@.,.,.,.,.,.,.,.,.,.i.i.i.i.i.i.i.i.",
"i.i.i.i.i.i.i.i.i.i.i.i.i.i.i.i.  p @.@.@.@.@.@.@.@.@.@.@.@.@.@.@.,.,.,.,.,.,.,.,.  i.i.i.i.i.i.i.i.",
"i.i.i.i.i.i.i.i.i.i.i.i.i.i.i.i.i.i.  @.@.@.@.@.@.@.@.@.@.@.@.@.@.,.,.,.,.,.,.,.,.i.i.i.i.i.i.i.i.i.",
"i.i.i.i.i.i.i.i.i.i.i.i.i.i.i.i.i.i.i.i.; @.@.@.@.@.@.@.@.@.@.@.@.,.,.,.,.,.,.,.  i.i.i.i.i.i.i.i.i.",
"i.i.i.i.i.i.i.i.i.i.i.i.i.i.i.i.i.i.i.i.i.  #.@.@.@.@.@.@.@.@.@.@.,.,.,.,.,.,.,.i.i.i.i.i.i.i.i.i.i.",
"i.i.i.i.i.i.i.i.i.i.i.i.i.i.i.i.i.i.i.i.i.i.i.  @.@.@.@.@.@.@.@.@.,.,.,.,.,.,.  i.i.i.i.i.i.i.i.i.i.",
"i.i.i.i.i.i.i.i.i.i.i.i.i.i.i.i.i.i.i.i.i.i.i.i.  @.@.@.@.@.@.@.@.,.,.,.,.,.,.i.i.i.i.i.i.i.i.i.i.i.",
"i.i.i.i.i.i.i.i.i.i.i.i.i.i.i.i.i.i.i.i.i.i.i.i.i.i.@.@.@.@.@.@.@.=.,.,.,.,.  i.i.i.i.i.i.i.i.i.i.i.",
"i.i.i.i.i.i.i.i.i.i.i.i.i.i.i.i.i.i.i.i.i.i.i.i.i.i.i.< @.@.@.@.@.  ,.,.,.,.i.i.i.i.i.i.i.i.i.i.i.i.",
"i.i.i.i.i.i.i.i.i.i.i.i.i.i.i.i.i.i.i.i.i.i.i.i.i.i.i.i.  @.@.@.@.  ,.,.,.  i.i.i.i.i.i.i.i.i.i.i.i.",
"i.i.i.i.i.i.i.i.i.i.i.i.i.i.i.i.i.i.i.i.i.i.i.i.i.i.i.i.i.  @.@.@.: ,.,.,.i.i.i.i.i.i.i.i.i.i.i.i.i.",
"i.i.i.i.i.i.i.i.i.i.i.i.i.i.i.i.i.i.i.i.i.i.i.i.i.i.i.i.i.i.i.  @.#.,.,.  i.i.i.i.i.i.i.i.i.i.i.i.i.",
"i.i.i.i.i.i.i.i.i.i.i.i.i.i.i.i.i.i.i.i.i.i.i.i.i.i.i.i.i.i.i.i.  @.,.1 i.i.i.i.i.i.i.i.i.i.i.i.i.i.",
"i.i.i.i.i.i.i.i.i.i.i.i.i.i.i.i.i.i.i.i.i.i.i.i.i.i.i.i.i.i.i.i.i.    i.i.i.i.i.i.i.i.i.i.i.i.i.i.i."
};
