/* XPM */
static char *result[] = {
/* columns rows colors chars-per-pixel */
"50 50 137 2 ",
"   c black",
".  c #010000",
"X  c #010100",
"o  c #020100",
"O  c #030100",
"+  c #040200",
"@  c #050200",
"#  c #060300",
"$  c #070300",
"%  c #080300",
"&  c #080400",
"*  c #090400",
"=  c #0A0400",
"-  c #0B0500",
";  c #0E0600",
":  c #0F0700",
">  c #100700",
",  c #110700",
"<  c #140900",
"1  c #160A00",
"2  c #170A00",
"3  c #170B00",
"4  c #180B00",
"5  c #1A0C00",
"6  c #1B0C00",
"7  c #1C0C00",
"8  c #1D0D00",
"9  c #1E0D00",
"0  c #1F0E00",
"q  c #210F00",
"w  c #230F00",
"e  c #231000",
"r  c #241000",
"t  c #251100",
"y  c #261100",
"u  c #271100",
"i  c #291200",
"p  c #291300",
"a  c #2B1300",
"s  c #2C1400",
"d  c #2E1500",
"f  c #311600",
"g  c #321700",
"h  c #331700",
"j  c #341700",
"k  c #351800",
"l  c #381900",
"z  c #3B1A00",
"x  c #3C1B00",
"c  c #3D1B00",
"v  c #3E1C00",
"b  c #401D00",
"n  c #421D00",
"m  c #421E00",
"M  c #431E00",
"N  c #441F00",
"B  c #451F00",
"V  c #472000",
"C  c #492100",
"Z  c #4A2100",
"A  c #4F2300",
"S  c #512400",
"D  c #522500",
"F  c #532500",
"G  c #542600",
"H  c #562600",
"J  c #572700",
"K  c #582800",
"L  c #5A2800",
"P  c #5B2900",
"I  c #5F2A00",
"U  c #602B00",
"Y  c #612C00",
"T  c #632C00",
"R  c #642D00",
"E  c #652D00",
"W  c #662D00",
"Q  c #652E00",
"!  c #692F00",
"~  c #6B3000",
"^  c #6C3000",
"/  c #6D3000",
"(  c #6D3100",
")  c #6E3100",
"_  c #6F3200",
"`  c #703200",
"'  c #713200",
"]  c #723300",
"[  c #733400",
"{  c #743400",
"}  c #753500",
"|  c #793600",
" . c #7B3700",
".. c #7E3900",
"X. c #7F3900",
"o. c #823A00",
"O. c #833A00",
"+. c #843B00",
"@. c #853C00",
"#. c #873C00",
"$. c #873D00",
"%. c #8A3E00",
"&. c #8D3F00",
"*. c #8F4000",
"=. c #904000",
"-. c #934200",
";. c #974300",
":. c #9A4500",
">. c #9B4500",
",. c #9B4600",
"<. c #9C4600",
"1. c #9D4600",
"2. c #9E4700",
"3. c #9F4700",
"4. c #A14800",
"5. c #A34900",
"6. c #A44A00",
"7. c #A64B00",
"8. c #A74B00",
"9. c #A94C00",
"0. c #AA4C00",
"q. c #AC4D00",
"w. c #AE4E00",
"e. c #AF4F00",
"r. c #B04F00",
"t. c #B14F00",
"y. c #B25000",
"u. c #B35000",
"i. c #B35100",
"p. c #B45100",
"a. c #B55100",
"s. c #B65200",
"d. c #B75200",
"f. c #B85200",
"g. c #B85300",
"h. c #B95300",
"j. c None",
/* pixels */
"j.j.j.j.j.j.j.j.j.j.j.j.j.j.j.j.j.j.j.j.j.j.j.j.j.j.j.j.j.j.j.j.j.j.j.i / -       j.j.j.j.j.j.j.j.j.",
"j.j.j.j.j.j.j.j.j.j.j.j.j.j.j.j.j.j.j.j.j.j.j.j.j.j.j.j.j.j.j.j.j.< h.h.h.h.h.h.h.h.    j.j.j.j.j.j.",
"j.j.j.j.j.j.j.j.j.j.j.j.j.j.j.j.j.j.j.j.j.j.j.j.j.j.j.j.j.j.j.% h.h.h.h.h.h.h.h.X h.h.  j.j.j.j.j.j.",
"j.j.j.j.j.j.j.j.j.j.j.j.j.j.j.j.j.j.j.j.j.j.j.j.j.j.j.j.j.o h.h.h.h.h.h.h.h.;.U h.h.h.  j.j.j.j.j.j.",
"j.j.j.j.j.j.j.j.j.j.j.j.j.j.j.j.j.j.j.j.j.j.j.j.j.j.j.  5 h.h.h.h.h.h.h.h.  h.h.h.h.h.  j.j.j.j.j.j.",
"j.j.j.j.j.j.j.j.j.j.j.j.j.j.j.j.j.j.j.j.j.j.j.j.j.j.[ h.h.h.h.h.h.r.H   h.h.h.h.h.h.h.  j.j.j.j.j.j.",
"j.j.j.j.j.j.j.j.j.j.j.j.j.j.j.j.j.j.j.j.j.j.j.j.F h.h.h.h.h.h.h.h.  h.  h.h.h.h.h.f j.j.j.j.j.j.j.j.",
"j.j.j.j.j.j.j.j.j.j.j.j.j.j.j.j.j.j.j.j.j.j.j h.h.h.h.h.h.h.h.$ h.h.h.  h.h.h.f.  j.j.j.j.j.j.j.j.j.",
"j.j.j.j.j.j.j.j.j.j.j.j.j.j.j.j.j.j.j.j.9 h.h.h.h.h.h.h.h.| I h.h.h.h.  h.h.  ]   j.j.j.j.j.j.j.j.j.",
"j.j.j.j.j.j.j.j.j.j.j.j.j.j.j.j.j.j.  p.h.Q -     o ..h.  h.h.h.h.h.h.    X h.h.c k       j.j.j.j.j.",
"j.j.j.j.j.j.j.j.j.j.j.j.j.j.j.j.  r.h.h.h.h.h.h.h.h.o   h.h.h.h.h.h.    h.h.h.h.m h.h.h.  3.j.j.j.j.",
"j.j.j.j.j.j.j.j.j.j.j.j.j.j.j.,.h.h.h.h.h.h.h.h.  h.h.  h.h.h.h.i   h.h.h.h.h.h.m h.. h.h.3.j.j.j.j.",
"j.j.j.j.j.j.j.j.j.j.j.j.j.#.h.h.h.h.h.h.h.h.  h.h.h.h.  h.h.h.    h.h.h.h.h.h.h.^ } h.h.h.3.j.j.j.j.",
"j.j.j.j.j.j.j.j.j.j.j.    @ D h.h.h.h.h._ W h.h.h.h.h.  h.  $.h.  h.h.h.h.h.    h.h.h.h.h.3.j.j.j.j.",
"j.j.j.j.j.j.j.j.j.  h.h.h.h.h.h.h.h.a.  h.h.h.h.h.h.h.    h.h.h.  h.h.h.    h.h.h.h.h.h.h.  j.j.j.j.",
"j.j.j.j.j.j.j.  d.h.h.h.h.h.h.h.h.  h.  h.h.h.h.h.    h.h.h.h.h.  h.1   h.~ h.h.h.h.h.s j.j.j.j.j.j.",
"j.j.j.j.j.  u.h.h.h.h.h.h.h.h.  h.h.h.  h.h.h.l   h.h.h.h.h.h.h.  X h.h.h.~ h.h.h.y.  j.j.j.j.j.j.j.",
"j.j.j.  7.h.h.h.h.h.h.h.h.@ h.h.h.h.h.  h.9.. h.  h.h.h.h.h.u.> Y h.h.h.h.~ h.h.  a.h.j.j.j.j.j.j.j.",
"j.j.j.  h.h.h.h.g       S h.h.h.h.h.h.  o ) h.h.  h.h.h.h.  @ h.h.h.h.h.h.~   5 h.h.h.h.h.x     j.j.",
"j.j.j.  h.h.h.h.h.h.h.f.h.h.h.h.h.h.  X h.h.h.h.  h.h.  . b h.h.h.h.h.h.    h.h.h.h.h.h.h.h.< ,.j.j.",
"j.j.j.  h.h.h.h.h.h.h.f.h.h.h.h.    h.h.h.h.h.h.      h.h.b h.h.h.h.7   h.h.h.h.h.h.h.h.  h.h.,.j.j.",
"j.j.j.  h.h.h.h.h.h.h.f.h.h.q     h.h.h.h.h.h.y o h.h.h.h.b h.h.s.  h.  h.h.h.h.h.*.  h.h.h.h.,.j.j.",
"j.j.j.j.      6 h.h.h.f.8.. h.h.  h.h.h.h.h.3 ^ h.h.h.h.h.b h.  y.h.h.  h.h.h.h.  6.h.h.h.h.h.,.j.j.",
"j.j.  h.h.h.h.h.h.h.h.>.G h.h.h.  h.h.h.  ^ h.h.h.h.h.h.h.  1 h.h.h.h.  h.h.  o.h.h.h.h.h.h.h.  j.j.",
"  K h.h.h.h.h.h.h.h.  h.h.h.h.h.  h.    h.h.h.h.h.h.h.    h.h.h.h.h.h.    8 h.&.h.h.h.h.h.  j.j.j.j.",
"h.h.h.h.h.h.h.B   h.h.h.h.h.h.h.    h.h.h.h.h.h.h.a     h.h.h.h.h.h.+   h.h.h.&.h.h.h.. j.j.j.j.j.j.",
"h.h.h.h.h.h.h.h.F h.h.h.h.h.S   h.h.h.h.h.h.h.2.  h.h.  h.h.h.h.%.  h.h.h.h.h.&.h.!   h.j.j.j.j.j.j.",
"h.h.h.h.h.h.h.h.Z h.h.h.d.+ ! h.h.h.h.h.h.h.  u.h.h.h.  h.h.h.  h.h.h.h.h.h.h. .$ h.h.h.h.h.h.w     ",
"h.h.h.h.h.h.h.h.M h.h.  h.h.h.h.h.h.h.h.  = h.h.h.h.h.# h.  g.h h.h.h.h.h.h.o , h.h.h.h.h.h.h.i.C 4 ",
"j.j.j.      L h.v   h.h.h.h.h.h.h.h.    h.h.h.h.h.h.h.    h.h.h h.h.h.h.    h.h.h.h.h.h.h.h.  h.h.4 ",
"j.j.j.j.j.  h.h.h.h.h.h.h.h.h.h.q   h.0 h.h.h.h.h.+   h.h.h.h.h h.h.O   1.h.h.h.h.h.h.o   h.h.h.h.4 ",
"j.j.j.j.j.j.~ h.{     e h.h.@.  h.h.h.j h.h.h.+.  h.h.h.h.h.h.h p   h.h.h.h.h.h.h.( o s.h.h.h.h.h.4 ",
"j.j.j.j.V h.h.h.h.h.h.h.h.z :.h.h.h.h.x h.h.  h.h.h.h.h.h.h.=.> d.h.h.h.h.h.h.h.  : h.h.h.h.h.h.h.  ",
"j.j.j.h.h.A       R h.y.> h.h.h.h.h.h.n   5.h.h.h.h.h.h.h.+ u h.h.h.h.h.h.h.  H h.: h.h.h.h.h.  j.j.",
"j.j.j.h.h.h.h.h.h.h.h.  h.h.h.h.h.h.  = h.h.h.h.h.h.h.    h.h.h.h.h.h.h.    h.h.h.: h.h.h.  j.j.j.j.",
"j.j.j.h.h.h.h.h.h.h.h.  h.h.h.h.#   h.h.h.h.h.h.h.    h.g.h.h.h.h.h.    h.h.h.h.h.: h.r j.j.j.j.j.j.",
"j.j.j.h.h.h.h.h.h.h.h.  h.h.4.-.X.h.h.h.h.h.h.&   h.h.h.h.h.h.h.O.  h.h.h.h.h.h.h.; j.j.j.j.j.j.j.j.",
"j.j.j.    T h.h.h.h.h.  h.X h.h.5.h.h.h.h.g.+ h.h.h.h.h.h.h.h.  h.  h.h.h.h.h.h.  j.j.j.j.j.j.j.j.j.",
"j.j.j.j.j.j.j.  h.t.4   h.h.h.h.u.h.h.h.  = h.h.h.h.h.h.h.  C h.h.  h.h.h.h.  j.j.j.j.j.j.j.j.j.j.j.",
"j.j.j.j.j.j.j.  h.h.h.h.h.h.h.h.d.h.  5 h.h.h.h.h.h.h.    h.h.h.h.  h.h.  j.j.j.j.j.j.j.j.j.j.j.j.j.",
"j.j.j.j.j.j.j.  w.h.h.a.k     S     h.h.h.h.h.h.h.    h.h.h.h.h.h.  ; j.j.j.j.j.j.j.j.j.j.j.j.j.j.j.",
"j.j.j.j.j.  5.h.h.h.h.h.h.h.h.  h.h.h.h.h.h.h.!   0.h.h.h.h.h.h.J j.j.j.j.j.j.j.j.j.j.j.j.j.j.j.j.j.",
"j.j.j.j.; <.h.h.h.h.h.h.h.q q.h.h.h.h.h.h.h.  h.h.0.h.h.h.h.h.  j.j.j.j.j.j.j.j.j.j.j.j.j.j.j.j.j.j.",
"j.j.j.j.h.h.h.h.h.h.` * @ h.h.h.h.h.h.h.o t h.h.h.0.h.h.h.  j.j.j.j.j.j.j.j.j.j.j.j.j.j.j.j.j.j.j.j.",
"j.j.j.j.h.h.h.h.h.h.h.h.N h.h.h.h.h.    h.h.h.h.h.0.h.  j.j.j.j.j.j.j.j.j.j.j.j.j.j.j.j.j.j.j.j.j.j.",
"j.j.j.j.h.h.h.h.h.h.h.h.P h.h.h.  h.h.h.h.h.h.h.h.  j.j.j.j.j.j.j.j.j.j.j.j.j.j.j.j.j.j.j.j.j.j.j.j.",
"j.j.j.j.h.h.h.h.h.h.h.h.Y h.' e.h.h.h.h.h.h.h.] j.j.j.j.j.j.j.j.j.j.j.j.j.j.j.j.j.j.j.j.j.j.j.j.j.j.",
"j.j.j.j.j.j.j.    2 h.h.E d h.h.h.h.h.h.h.h.  j.j.j.j.j.j.j.j.j.j.j.j.j.j.j.j.j.j.j.j.j.j.j.j.j.j.j.",
"j.j.j.j.j.j.j.j.j.  h.h.h.h.h.h.h.h.h.h.  j.j.j.j.j.j.j.j.j.j.j.j.j.j.j.j.j.j.j.j.j.j.j.j.j.j.j.j.j.",
"j.j.j.j.j.j.j.j.j.j.j.j.j.j.      )   j.j.j.j.j.j.j.j.j.j.j.j.j.j.j.j.j.j.j.j.j.j.j.j.j.j.j.j.j.j.j."
};
