/* XPM */
static char *result[] = {
/* columns rows colors chars-per-pixel */
"50 50 255 2 ",
"   c #020102",
".  c #0B0405",
"X  c #03030B",
"o  c #090808",
"O  c #160807",
"+  c #16140C",
"@  c #050A12",
"#  c #0B0C13",
"$  c #070617",
"%  c #131313",
"&  c #1B181A",
"*  c #110E13",
"=  c #260B05",
"-  c #2B160A",
";  c #261A16",
":  c #36170C",
">  c #3A260C",
",  c #29241A",
"<  c #372817",
"1  c #3C311A",
"2  c #28210B",
"3  c #100B2C",
"4  c #281D26",
"5  c #272727",
"6  c #362A27",
"7  c #393529",
"8  c #2D2A37",
"9  c #383638",
"0  c #322C35",
"q  c #1F211E",
"w  c #43170A",
"e  c #462809",
"r  c #452917",
"t  c #483616",
"y  c #563B18",
"u  c #55360C",
"i  c #683E0F",
"p  c #483727",
"a  c #553827",
"s  c #453D35",
"d  c #473937",
"f  c #53372D",
"g  c #594619",
"h  c #584307",
"j  c #674A18",
"k  c #754A17",
"l  c #68521D",
"z  c #785718",
"x  c #63440B",
"c  c #776B19",
"v  c #584629",
"b  c #4B423B",
"n  c #484334",
"m  c #584938",
"M  c #5E5534",
"N  c #674927",
"B  c #69572B",
"V  c #775A27",
"C  c #644D37",
"Z  c #685539",
"A  c #775B38",
"S  c #734D2C",
"D  c #78602B",
"F  c #79643C",
"G  c #6D6234",
"H  c #383A47",
"J  c #3F3C56",
"K  c #281C41",
"L  c #473F54",
"P  c #3D4449",
"I  c #494547",
"U  c #554A44",
"Y  c #5A5349",
"T  c #484754",
"R  c #534E57",
"E  c #545353",
"W  c #5A5759",
"Q  c #4A534A",
"!  c #654A44",
"~  c #685A49",
"^  c #665B57",
"/  c #725949",
"(  c #6B6349",
")  c #796544",
"_  c #786848",
"`  c #6A635A",
"'  c #776958",
"]  c #797251",
"[  c #555564",
"{  c #645B63",
"}  c #5D656B",
"|  c #6A6766",
" . c #766C65",
".. c #7B7569",
"X. c #707476",
"o. c #926A1C",
"O. c #876A37",
"+. c #99763A",
"@. c #8C6F2C",
"#. c #926E2A",
"$. c #866949",
"%. c #887447",
"&. c #957A48",
"*. c #877756",
"=. c #967C58",
"-. c #896B4C",
";. c #897B67",
":. c #857A74",
">. c #8E736D",
",. c #9A8539",
"<. c #9B845C",
"1. c #998657",
"2. c #948B56",
"3. c #A48647",
"4. c #A68A59",
"5. c #AA9457",
"6. c #AC9047",
"7. c #B7A252",
"8. c #898364",
"9. c #9C8B63",
"0. c #9B8B6C",
"q. c #968568",
"w. c #9D936A",
"e. c #8B8677",
"r. c #95897A",
"t. c #9D9378",
"y. c #A38A64",
"u. c #A89667",
"i. c #B79C69",
"p. c #A99878",
"a. c #B29B72",
"s. c #B19778",
"d. c #A38C79",
"f. c #BAA569",
"g. c #ACA376",
"h. c #B4A274",
"j. c #BBA574",
"k. c #B5A37B",
"l. c #BAA87B",
"z. c #BDB67C",
"x. c #C8A968",
"c. c #C4AB7B",
"v. c #C4AA74",
"b. c #C9B679",
"n. c #D4B87B",
"m. c #CBB26F",
"M. c #D3C67D",
"N. c #797B82",
"B. c #807E83",
"V. c #798188",
"C. c #7898D9",
"Z. c #9B9689",
"A. c #888D98",
"S. c #938C8C",
"D. c #A79984",
"F. c #AA9A8E",
"G. c #ADA287",
"H. c #BCAB84",
"J. c #B9A787",
"K. c #B6A797",
"L. c #BEB493",
"P. c #B4AD8C",
"I. c #A99CA7",
"U. c #BBB4A8",
"Y. c #B9B7B6",
"T. c #A3A6A9",
"R. c #9A9F9F",
"E. c #C3AC83",
"W. c #C2AE8D",
"Q. c #C6B384",
"!. c #CCB383",
"~. c #C4B48D",
"^. c #CCB98B",
"/. c #CAB68B",
"(. c #D4BB84",
"). c #D3BA8B",
"_. c #D8B987",
"`. c #C4B493",
"'. c #CBBC9C",
"]. c #C9B897",
"[. c #D4BD95",
"{. c #CBAE8B",
"}. c #CBBCA2",
"|. c #C7B7A8",
" X c #C8BDB5",
".X c #D2BBA2",
"XX c #D9C48A",
"oX c #CDC29A",
"OX c #D5C295",
"+X c #DCC493",
"@X c #D5C29B",
"#X c #DCC59B",
"$X c #DDCC9D",
"%X c #D6CD8F",
"&X c #E4CB94",
"*X c #E3CC9C",
"=X c #E8CA95",
"-X c #E6D39E",
";X c #EBD390",
":X c #CDC1A4",
">X c #D4C3A2",
",X c #DCC5A2",
"<X c #DCCBA4",
"1X c #DACBAC",
"2X c #D5C8AB",
"3X c #DBD2A5",
"4X c #CCC5B8",
"5X c #D7C9B4",
"6X c #DFD5B9",
"7X c #E5CCA6",
"8X c #E5D4A3",
"9X c #EAD4A3",
"0X c #E3D3AA",
"qX c #E9D5AC",
"wX c #EDDBAC",
"eX c #E7D9A7",
"rX c #F3DDAB",
"tX c #F4D9A7",
"yX c #E3D5B2",
"uX c #EED5B1",
"iX c #EBDCB4",
"pX c #EDDDBA",
"aX c #E5DAB8",
"sX c #F3DCB8",
"dX c #E3CFB1",
"fX c #F5E2AA",
"gX c #F3E3B4",
"hX c #F5E4BD",
"jX c #F5E9BD",
"kX c #FAECBC",
"lX c #F9E8B6",
"zX c #EEE8B6",
"xX c #B4BCC1",
"cX c #BFC5CD",
"vX c #D7CCC6",
"bX c #DCD5DA",
"nX c #D1CFC9",
"mX c #E5DAC4",
"MX c #F3DFC4",
"NX c #E2D8CE",
"BX c #FAEBC3",
"VX c #F5E8C7",
"CX c #FBF3C6",
"ZX c #FBF3CB",
"AX c #FBF9CB",
"SX c #EAE2DA",
"DX c #F7ECD2",
"FX c #FBF7D5",
"GX c #ECE5C5",
"HX c #DEE5E5",
"JX c #FDF9E4",
"KX c #FCFCF8",
"LX c #E9E9E9",
"PX c #E2E1D9",
"IX c None",
/* pixels */
"IXIXIXIXIXIXIXIXIXIXIXIXIXg <.D.l.IXIXIXIXIXIXIXIXIXIXIXIXIXIXIXIXIXIXIXIXIXIXIXIXIXIXIXIXIXIXIXIXIX",
"IXIXIXIXIXIXIXIXIXIXIXIXIXIX].zXkXCXgXjXVXIXIXIXf.n.n.lXIXIXIXIXIXIXIXIXIXIXIXIXIXIXIXIXIXIXIXIXIXIX",
"IXIXIXIXIXIXIXIXIXIXDXIXIXIX<.0X$X8X0XaXaXGXIXu.x m.Q.*X9XwXrXqXhXIXIXIXIXIXIXa.ZXIXIXIXIXIXIXIXIXIX",
"IXIXIXIXIXIXIXIX` A 9.hXyXiX&.$X$Xt.'.] 1XP.mX4.@.g w.rXk f.7XBX2XZXIXIXIXH.aXaXBX0XIXIXIXIXIXIXIXIX",
"IXIXIXIXIX2XVXoX X~.Z.$X,X8XgXf.N ;.p.l.j.j.-XCXF.p.g x.n.XXn.b.vXVXF ~.).K.`.uX) ,XsXIXIXIXIXIXIXIX",
"IXIXIXIXS.e.P + SXa U.*Xl.jXBXeX. O o.u w - = oXH.s i &X=Xn.tX*Xp lXu &XsXk.0X,X0X^.qXiXIXIXIXIXIXIX",
"IXIXIXIX& W ^ 0 < v 5Xp  .OXJX].8XJX..v @.N g 2 u.M X   e u = u.,XuXaXO.4.[.).).qX`.@XJX,XIXIXIXIXIX",
"IXIXIXK KXC.%       o C g 4.*.b.aXY.:XD.A.A.X.e.Z.xXLXcX5X|.dX|.JX1X5XmXk g y._.eXXXwXFX9.IXIXIXIXIX",
"IXIXKXKXKX7 O 9 0 5 %       M ~./._ sX8.. u.tXuX%X$XZXAXj k.L.[.t 5X>X@XX   O d.JXPXp x.'.IXIXIXIXIX",
"IXIX1.L b 6 m 5 oX1Xq ( n * p _ h.XXQ.u.~ &X!.!.f.H.+X(.y V }..X> ].H.u.O k j *XuXZX  =.~ IXIXIXIXIX",
"IXIXIXb 6 .    .C d *.j.ZXR + bXV N $.q.bXj.f.c.i.s l.).o N  X> = BXtXBXsXlXi.#.4.8XwX'.j.IXIXIXIXIX",
"IXIXIXb O Y E I   S.C m q.}.v     o p.L.p.qXO k 3.t +.+ . . K.~.dXrXf.[.&Xn.ZXz E.b.qX1Xq.IXIXIXIXIX",
"IXIXd ` ` Y I T W xXN.T.S.T.A.    o 1.i.0.- fX- ; - rXkX~ # |.a.< < >..XJ.b.[.o.g n.rXkXkXIXIXIXIXIX",
"IXIX, 4 9 C m m 0 O   4Xe.K.8Xl.d   E.x k.t iXiXFXc.-Xv.$X  5XN ) n.v.;Xi {.n.O % rXVX*XVXIXIXIXIXIX",
"IXIX, n ; f W / 7 7 o K.l.Z.D.8XlX< N a.E.r A $.%X@X).uXCX  5XV m.).XX=XS x.9X7XiX*X-Xx.ZXIXIXIXIXIX",
"IXIXIX! ; p ` ~ mX5   R.Z ~ C ^.n.;X  o   @ @   N = i O i.iXU.e O.: * p S 1.!.sXZ 9XrX&XBXIXIXIXIXIX",
"IXIXg ~ L Y d - + . [ R.9 5 Y D tXr E.1XSX).#XtXBX  <.{.sXhX}.hX5XDXmXpX1.z Q.*X'.5.z z sXIXIXIXIXIX",
"IXIX) 8 [ H 5 o   0 0 K._ >Xq.<   t l.y.Q.k.tXv.ZX  %.j.,X/./ yXJ.*XA i z l O.-.K.O.FXGXpXIXIXIXIXIX",
"IXIX_ | W R T 8 L ~ p  X8.O lXL.d ) a.u.p H.(.Q.+X1 S i.c.c.t.^.MX9Xj 5.!.=X#XE.|.8X,XDXmXIXIXIXIXIX",
"IXIX( W b s T I { ; m |.$.[.v.-X1 @ .Xa.~ H.c.!.).% O l 1.j.9.u.O > _.9Xc.FXFXhXq.iX,XZX9 IXIXIXIXIX",
"IXIXN | , 7 s U  .& a ` $.v F F     + F ] g.e <.c.mX>X].[.@X    & N =.XXkXuXuXZXD.$XH.1Xe.IXIXIXIXIX",
"IXIX;.< ; o   o 8   X.X.9 4XOX'.DXT W S.4XNXU. XU.K.L.2XKXSXSXHXHXbXLXvXaX,X8.yXvXNX#X^.JXIXIXIXIXIX",
"IXIXa 8 @ [ P H H # o D.D.~ 1X4XKXK.Z.'.~ '.'.`.L. .l.j.J.>X2X# 9.aXg.aXaXCX. &.*Xt 9Xf IXIXIXIXIXIX",
"IXIXC s 9 R R [ , E T d.U s L.GXMXb '.L.' H.J.P.L.`.l.H.E.^.0X- '.OXaXeX3X<X2XA @XH.kXwXIXIXIXIXIXIX",
"IXIXU { & b I d.E 5 o ` a.I B p.W.9 H.iXG.`.L.'.Q.m H.H.W.E.B g 7X/.@X*XwXP.~.2XW.VXJ.CXK.IXIXIXIXIX",
"IXIX; $ W q + :.$ * # n k.M 0.H.1X, e.J.m J./.2X[.mXp.>XA yX  j 1.[.#XwX0X'.c.0Xp  X4XOX>.IXIXIXIXIX",
"IXIX..9 ..W 5 o 9 & 5 X m m v p OXr m d.}.`.w.GX%.1 <X_ -X;X-.DXx tX%XOX#XlX#X%.uXhX3Xb.IXIXIXIXIXIX",
"IXIX  I R E   |  .q.D.;   DX< = < 8 8 X +   $ 2Xc.<Xz.,X+XZXJ.0X# X   O 6 w kXy 9X+XfX! IXIXIXIXIXIX",
"IXIX9.4 d p , | W t.:X  p.JXoX2./.aXpXmX; u.[.y.i.0.hX@X+XqX].<X  . oX3.M.fXtXfXc.!.*XW IXIXIXIXIXIX",
"IXIXl H X X Y.q 4Xm Q 5 `.vX*.2 3Xz.0X9X> Q.!.s.j.2X*XeXjX).*.+ 9X$X=XZX_.CXeXn..XS 8XIXIXIXIXIXIXIX",
"IXIXIX| v X.X I Q o p * 9 Z.8.w.1 %.v   ; a.J.yXl.] OX@X#XE.vXnXmXNXU.:.r N JX7X!.7XDXIXIXIXIXIXIXIX",
"IXIXIXs n z.P f + 9 * . % 5 5 , < XX. X p B %.>XH.0.1.y c O.D., f.m.a.=XlXsX8Xv.=XuXk.IXIXIXIXIXIXIX",
"IXIXIX^ ; Y , p.!.s U J.J., l.> 1XkX*.  % X     X a.lXwXgXBXVXkX  N i n._.a.a.i.tX5.].IXIXIXIXIXIXIX",
"IXIXIX7 b ^ 5 <.5., F.K.u.:.%.a.j.l.2X=X-X> fXDX  d.wX_ wXG CXu.9 b p -XCXlX4.k +.5.S.IXIXIXIXIXIXIX",
"IXIXIX# 9 * nX$ + & T.} g.( +.1 # % S.+X=.b.+X7X; r $XjXzXAXAXw p.`.H.3XbX .|.y.x.5.sXIXIXIXIXIXIXIX",
"IXIXIXIXE ; . y m 9 8 H   y.1X  X   p.f.OXv.f.Z O | 5 = > VXO : K.u N &.J.a.x.9X2Xf.gXIXIXIXIXIXIXIX",
"IXIXIXIX6   g.= `.v 1.y.h.p.i.t.~.#X1X<X6XeXGXO =.H.&XiX1X9XkXO.k.fXl.e.D._.=XlX;XgXhXIXIXIXIXIXIXIX",
"IXIXIXX 6 % O w r -.<.`.y.:Xo p.y.'.~./.I.@XqXO 4.F.^./.Q._.4.5.s.(.- rXy.lXgX=X_.<Xf...IXIXIXIXIXIX",
"IXIXIXX X 5 I 9 N.d !.].q.5 . 6 p.u.OX^.nXQ.lX' Z `.OXXXb.A 4.+XwX7Xa qX9.*...^.m.=Xk.S.IXIXIXIXIXIX",
"IXIXIXX X T & o R 7 % (   @ @ 3 T $ T V.A.T.bX|.b . 0 AX3 0 ! y -.: *.lXDXFXl.XXCX-XrXF.G.IXIXIXIXIX",
"IXIXIX    X     5 h.> eX,   ` 9 1 oX3Xl p.@ ~ tX9X>XrXwXe f.*Xe pXkXaXMXgXqXO.i.CX8XD.;.s.*.IXIXIXIX",
"IXIX8.*.G.B * @   X , Q.t.  ~ H K.vXt.H.OXN _.sXfXFX-XhXa 4.k.y.h.4.t 0XuXvX= A 4.F O.-.=.=./ IXIXIX",
"IXIXZ _ *.%.2.    # 7 $       2 E g U s.#X^ i.-.*XsX-XOX. e ( J.`.k.J.9.: ; SXJ D.9X  v.2.t 0.IXIXIX",
"IX:.Z.r.9.1.p.p.^.u.L.t.u.h.G.t.t...M.7.! X >.hXr a f.M.4XY.|.D.i.p.d.D.d.>.i.u.O.&.D.y.p.q.p.IXIXIX",
"8.t. .Z.D.' ;.;.t.Z.Z.F.e.r.*. .e.` r.^ | E ^ .. . .' ..'  ...Y I.>.>.0.y.<._.-.dXx.b.-.@.g.G.d.IXIX",
"Y m U ~ 8.2 .       X X     @   .             b 9 5 d W O Z r # %   X c.. O r  X+X'.$.X X / 6 n C N ",
"` ` ' ( ] H.                                  v m _ / ( 3 $ *       & .   o . o >..       ! m r C O.",
"e.] 8.8...'.    X X X X   @ o                 ' ;.w.g.y.X   X X O ! 6.,.c c &   X . X   o ] u._ =.+.",
"{ ] G w.w.u.o.k #.c.=.j.&.5.f.+.,.+.,.+.5.    | u.r.0.w.O.+.3.(.3.A F ,.o.#.,.-.E.M.* X   ~ %.] A 2.",
"I 2.M g.8.V c l 3.V $.O.m.i F _ F D O.&.2.&.0.<.=.> F g *.IXj g #.@.O.F =.l =.o.^ %. .`.` N B _ Z B "
};
