/* XPM */
static char *result[] = {
/* columns rows colors chars-per-pixel */
"50 50 73 1 ",
"  c black",
". c #010000",
"X c #000100",
"o c #000001",
"O c #010001",
"+ c #010101",
"@ c #030000",
"# c #020100",
"$ c #030001",
"% c #000002",
"& c #010002",
"* c #010103",
"= c #020002",
"- c #020003",
"; c #040003",
": c #040402",
"> c #000104",
", c #030004",
"< c #0C0504",
"1 c #0F0806",
"2 c #120503",
"3 c #120905",
"4 c #130A04",
"5 c #1E0D0C",
"6 c #4E1D15",
"7 c #4C1F15",
"8 c #5D2812",
"9 c #602812",
"0 c #692913",
"q c #6D2D1F",
"w c #5B2F28",
"e c #6C2C22",
"r c #702C21",
"t c #7F3023",
"y c #7E3123",
"u c #744627",
"i c #8C3B17",
"p c #8D3B18",
"a c #953C1B",
"s c #A13E1F",
"d c #A03D2A",
"f c #A33B2D",
"g c #A53D2D",
"h c #9D411B",
"j c #9F411D",
"k c #804037",
"l c #89453A",
"z c #954A3D",
"x c #B0472E",
"c c #AE5B23",
"v c #A84130",
"b c #B34430",
"n c #B44430",
"m c #B04A34",
"M c #B04A36",
"N c #B94933",
"B c #BA4A34",
"V c #BA4938",
"C c #AD673B",
"Z c #C56529",
"A c #984F41",
"S c #965041",
"D c #A04F41",
"F c #A75543",
"G c #B25A47",
"H c #B3574A",
"J c #A0614A",
"K c #A16150",
"L c #B67054",
"P c #C07443",
"I c #C2775A",
"U c #C4745E",
"Y c #C0785A",
/* pixels */
"t MMMMMMhjjjjjjtttttt MMMMMM2jjjjjjttttttyMMMMMM N",
"t MMMMMMhjjjjjjtttttt MMMMMM2jjjjjjttttttyMMMMMM N",
"t MMMMMMhjjjjjjtttttt MMMMMM2jjjjjjttttttyMMMMMM N",
"6 eeeeee8999999666666 eeeeee<9999996666667eeeeee r",
"jjjjjtttttt PPPPPP0jjjjjjtttttt@PPPPPP jjjjjjNNNNN",
"jjjjjtttttt PPPPPP0jjjjjjtttttt@PPPPPP jjjjjjNNNNN",
"jjjjjtttttt PPPPPP0jjjjjjtttttt@PPPPPP jjjjjjNNNNN",
"     oooooo       >      oooooo              =====",
"P NNNNNNxbbbbbbGGGGGG AAAAAA IIIIIIGGGGGGHAAAAAA Z",
"P NNNNNNxbbbbbbGGGGGG AAAAAA IIIIIIGGGGGGHAAAAAA Z",
"P NNNNNNxbbbbbbGGGGGG AAAAAA IIIIIIGGGGGGHAAAAAA Z",
"                                                  ",
"PPPPPZZZZZZ IIIIIIijjjjjjGGGGGGFAAAAAA IIIIIINNNNN",
"PPPPPZZZZZZ IIIIIIijjjjjjGGGGGGFAAAAAA IIIIIINNNNN",
"PPPPPZZZZZZ IIIIIIijjjjjjGGGGGGFAAAAAA IIIIIINNNNN",
"                                                  ",
"G AAAAAAGGGGGGGAAAAAA tttttt MMMMMMGGGGGGHAAAAAA P",
"G AAAAAAGGGGGGGAAAAAA tttttt MMMMMMGGGGGGHAAAAAA P",
"G AAAAAAGGGGGGGAAAAAA tttttt MMMMMMGGGGGGHAAAAAA P",
"&&&&&OOOOOO ......;XXXXXX&&&&&&,OOOOOO &&&&&&%%%%%",
"jjjjjZZZZZZ GGGGGGSAAAAAAjjjjjjaZZZZZZ jjjjjjIIIII",
"jjjjjZZZZZZ GGGGGGSAAAAAAjjjjjjaZZZZZZ jjjjjjIIIII",
"jjjjjZZZZZZ GGGGGGSAAAAAAjjjjjjaZZZZZZ jjjjjjIIIII",
"C vvvvvvgddddddpppppp CCCCCC vvvvvvddddddfDDDDDD l",
"P NNNNNNxbbbbbbjjjjjj PPPPPP NNNNNNbbbbbbnGGGGGG A",
"P NNNNNNxbbbbbbjjjjjj PPPPPP NNNNNNbbbbbbnGGGGGG A",
"P NNNNNNxbbbbbbjjjjjj PPPPPP NNNNNNbbbbbbnGGGGGG A",
"NNNNNbbbbbb GGGGGG1AAAAAAIIIIIIYGGGGGG AAAAAAZZZZZ",
"NNNNNbbbbbb GGGGGG1AAAAAAIIIIIIYGGGGGG AAAAAAZZZZZ",
"NNNNNbbbbbb GGGGGG1AAAAAAIIIIIIYGGGGGG AAAAAAZZZZZ",
"vvvvvdddddd zzzzzz3kkkkkkJJJJJJKDDDDDD llllllccccc",
"P ZZZZZZLIIIIIIjjjjjj#GGGGGG AAAAAAIIIIIIUNNNNNN b",
"P ZZZZZZLIIIIIIjjjjjj#GGGGGG AAAAAAIIIIIIUNNNNNN b",
"P ZZZZZZLIIIIIIjjjjjj#GGGGGG AAAAAAIIIIIIUNNNNNN b",
"  OOOOOO-OOOOOOoooooo oooooo OOOOOO%%%%%%$++++++ O",
"AAAAAGGGGGG AAAAAA ttttttMMMMMMmGGGGGG AAAAAAPPPPP",
"AAAAAGGGGGG AAAAAA ttttttMMMMMMmGGGGGG AAAAAAPPPPP",
"AAAAAGGGGGG AAAAAA ttttttMMMMMMmGGGGGG AAAAAAPPPPP",
"                                                  ",
"j ZZZZZZHGGGGGGAAAAAA jjjjjj ZZZZZZjjjjjjsIIIIII N",
"j ZZZZZZHGGGGGGAAAAAA jjjjjj ZZZZZZjjjjjjsIIIIII N",
"j ZZZZZZHGGGGGGAAAAAA jjjjjj ZZZZZZjjjjjjsIIIIII N",
"                                                  ",
"NNNNNbbbbbb jjjjjj.PPPPPPNNNNNNBbbbbbb GGGGGGAAAAA",
"NNNNNbbbbbb jjjjjj.PPPPPPNNNNNNBbbbbbb GGGGGGAAAAA",
"NNNNNbbbbbb jjjjjj.PPPPPPNNNNNNBbbbbbb GGGGGGAAAAA",
"u rrrrrr4666666rrrrrr:wwwwww uuuuuurrrrrrqwwwwww r",
"P NNNNNN5ttttttNNNNNN*AAAAAA PPPPPPNNNNNNVAAAAAA N",
"P NNNNNN5ttttttNNNNNN*AAAAAA PPPPPPNNNNNNVAAAAAA N",
"P NNNNNN5ttttttNNNNNN*AAAAAA PPPPPPNNNNNNVAAAAAA N"
};
