/* XPM */
static char *result[] = {
/* columns rows colors chars-per-pixel */
"50 50 231 2 ",
"   c #010101",
".  c #020609",
"X  c #080909",
"o  c #0B0C0C",
"O  c #170904",
"+  c #1A0D05",
"@  c #130D0B",
"#  c #0E100E",
"$  c #1B1008",
"%  c #1C110B",
"&  c #0C0E11",
"*  c #0E1113",
"=  c #121314",
"-  c #141519",
";  c #171718",
":  c #1B1B1D",
">  c #240C08",
",  c #3A0409",
"<  c #251207",
"1  c #24120A",
"2  c #29130B",
"3  c #35160E",
"4  c #31190E",
"5  c #231714",
"6  c #2C1611",
"7  c #2D1912",
"8  c #331A12",
"9  c #3B1B17",
"0  c #3B1E14",
"q  c #26221A",
"w  c #3D2115",
"e  c #372118",
"r  c #3D2119",
"t  c #1D1D21",
"y  c #211F23",
"u  c #1E2024",
"i  c #232226",
"p  c #252429",
"a  c #292628",
"s  c #2B292D",
"d  c #352924",
"f  c #38332D",
"g  c #2D2C31",
"h  c #312F33",
"j  c #333235",
"k  c #3D3931",
"l  c #363439",
"z  c #39363A",
"x  c #3D3B3D",
"c  c #4C0014",
"v  c #411E16",
"b  c #422216",
"n  c #492517",
"m  c #442319",
"M  c #49261B",
"N  c #442A1C",
"B  c #4C2A1C",
"V  c #512D1C",
"C  c #4B301D",
"Z  c #54311E",
"A  c #441B25",
"S  c #581C24",
"D  c #761329",
"F  c #462622",
"G  c #4C2C21",
"H  c #522E22",
"J  c #582629",
"K  c #4C3524",
"L  c #47362B",
"P  c #553322",
"I  c #5A3523",
"U  c #5D3A26",
"Y  c #59372A",
"T  c #5E3C28",
"R  c #5E2C31",
"E  c #433A39",
"W  c #5B3935",
"Q  c #61282A",
"!  c #6C2C2F",
"~  c #623C26",
"^  c #6D322E",
"/  c #633D29",
"(  c #673532",
")  c #743836",
"_  c #4B4439",
"`  c #5C4332",
"'  c #644329",
"]  c #66422B",
"[  c #6A452C",
"{  c #6E4A2E",
"}  c #664934",
"|  c #6E4B32",
" . c #724D31",
".. c #76463C",
"X. c #6C5237",
"o. c #755234",
"O. c #7A5434",
"+. c #7D5A36",
"@. c #76563B",
"#. c #7D5C3A",
"$. c #3F3C41",
"%. c #413E41",
"&. c #5C3C43",
"*. c #474445",
"=. c #5A544A",
"-. c #535353",
";. c #6A4A44",
":. c #7C4944",
">. c #675749",
",. c #7D5645",
"<. c #796449",
"1. c #6C6554",
"2. c #786D58",
"3. c #646464",
"4. c #78706F",
"5. c #777777",
"6. c #84142F",
"7. c #8A1631",
"8. c #942B3C",
"9. c #84443F",
"0. c #835C36",
"q. c #855D3A",
"w. c #885E3C",
"e. c #83633C",
"r. c #8C653D",
"t. c #886B3E",
"y. c #9E3642",
"u. c #B33850",
"i. c #854B45",
"p. c #835244",
"a. c #895749",
"s. c #945A4B",
"d. c #8B5055",
"f. c #975C52",
"g. c #A85B57",
"h. c #8D6742",
"j. c #8C6845",
"k. c #946846",
"l. c #98754B",
"z. c #856050",
"x. c #9D6454",
"c. c #9A6957",
"v. c #85755A",
"b. c #9D7854",
"n. c #A07A4E",
"m. c #A26959",
"M. c #A6755A",
"N. c #A15765",
"B. c #877767",
"V. c #887D72",
"C. c #A86B64",
"Z. c #AD7562",
"A. c #A87766",
"S. c #B2726F",
"D. c #B67D69",
"F. c #C64A61",
"G. c #D34F6E",
"H. c #C56F73",
"J. c #E86877",
"K. c #96886B",
"L. c #928977",
"P. c #988B74",
"I. c #AC8B6D",
"U. c #B7866C",
"Y. c #AD8872",
"T. c #B88A74",
"R. c #A69979",
"E. c #B8987A",
"W. c #AEA17D",
"Q. c #B1A37F",
"!. c #C38C77",
"~. c #C8937A",
"^. c #D6957D",
"/. c #B77382",
"(. c #E07686",
"). c #8A8989",
"_. c #95928D",
"`. c #A79B84",
"'. c #ADA287",
"]. c #B2A383",
"[. c #B6A887",
"{. c #BBAD8C",
"}. c #BEB18E",
"|. c #B7AB92",
" X c #BDB293",
".X c #BEB49B",
"XX c #AEABA0",
"oX c #ACACAC",
"OX c #BABABA",
"+X c #D28F89",
"@X c #C69B85",
"#X c #CCA589",
"$X c #CEAF8C",
"%X c #D5A589",
"&X c #D9AA97",
"*X c #C2B495",
"=X c #C4B99C",
"-X c #C9BA9E",
";X c #DBB698",
":X c #E3AD8E",
">X c #E7B799",
",X c #E598A6",
"<X c #C3BAA7",
"1X c #CCBEA2",
"2X c #EAA9AD",
"3X c #E6BAA4",
"4X c #CEC2A6",
"5X c #D2C3A7",
"6X c #D3C5AB",
"7X c #D5C9AD",
"8X c #D9CBAE",
"9X c #D6C9B7",
"0X c #DBCCB2",
"qX c #DED0B3",
"wX c #E8C5AA",
"eX c #EDC8B3",
"rX c #F5CBB7",
"tX c #ECD0B4",
"yX c #F7D1BC",
"uX c #C8C8C9",
"iX c #DED4C1",
"pX c #DADADA",
"aX c #EBD4CA",
"sX c #FAD9C4",
"dX c #EDE2CE",
"fX c #EEE4D3",
"gX c #EDE5DC",
"hX c #F1E7D5",
"jX c #F1EEE8",
"kX c #F5F4F3",
"lX c #FFFFFF",
/* pixels */
"[  .> Z  .b < I { O +.0.h.b n M 0 w P o.e.v w B 0 v n ' o.0.0 0 Z o.0 3 w U / q.P.6X8X-XN B Z P 1 w ",
"[  .> Z o.b < I { O 0.0.l.w M n w w I o.t.b w B 0 w N [ o.0.8 w P o.0 4 w T [ #.P.7X8X}.Y V I P 2 r ",
" . .> I | b < T { O 0.0.l.$                   '     E.*.@               w U ] q.K.7X8X[.<.P Z P 1 r ",
"O.0.< ~  .0 1 / { O 0.0.k.6 lXlXj 5.lX  lXuX  E.lXlX  kXlXlXj   lX  lXlX0 T [ +.K.0X7XQ.K.V P I 1 b ",
" .O.< U { r 1 / [ + 0.e.l.v lXlXoXo lX  lXuX  :XlXlX  oXlXlXx   lXX lXlX0 U [ +.B.7X#XE.].B I P 1 w ",
"0.{ 2 ~ { w < T [ + 0.q.l.v lXlXlX  lX  lXuX  $XlXlX  oXlXlXlX  lX% pXlX0 U [ O.K.9XZ.Q. XB P P 2 w ",
"O.{ 2 ' | w < / { + 0.q.l.b lX).lX  lX  lXuX  qXlXlX  oXlXlXlX  lXK oXlX0 ~ ] o.R.9Xg.I.4XB Z Y 1 r ",
"O.O.2 ] [ 0 1 / [ + 0.r.l.b lXX lX+ lX  lXuXlXsXlXlX  lXlXlXlX  lX  lXlX0 ~ ]  .'.0X8.8.1XB Z P 1 b ",
"0.0.2 / | r 1 T ] $ q.r.b.n 4 2 < 8 e K N } ,.~.z.,.+X7 ~.b.B.P.K K 2 1 0 T ]  .#X6X7.m.-XV P P 1 w ",
"O.O.3 / | 0 2 ~ [ $ w.r.l.n n 0 0 b T  .X.j.M.!.~.+XD.%X$X%X;XtX#. .N 8 0 T / |  X8X7.g.*XV P P 1 r ",
"O.+.8 / [ v 1 / [ % q.r.l.0 b b w b U @.,.e.U.I.~.!.D.Z.s.D.>X$X@. .B 8 0 U / } =X1Xy.m.#XZ H Z 1 r ",
"O.O.0 [ [ v 1 / ] 1 w.r.n.0 b b w b U [ | ,.T.i...s.s.i.:.) ;XE.] { B 8 0 T / { 1X1X8.-X[.} H V 1 w ",
"O.O.8 ] ' b 2 / ] 1 r.r.n.b 3 b 0 b T v H c.A.^ p.Q ^.^ 1 ..>XU.q.| n 8 0 U T X.1X=X!.6X].v.Z H 1 0 ",
"O.o.0 ' ' b 1 / ] 1 w.h.b.n b 0 0 b I Y Y m.z.( ( ..rXi.:.@X%XI.I. .B 3 0 U / ,.1X*X1X0XQ.P.Z V 2 0 ",
"o.o.0 { ' w 2 / / 1 e.r.n.n n b 0 b I C H A.T.@XA.#XwXrXp.~.>X%X#X .n 8 0 U / <.4X X0XeXW.].Y B 1 0 ",
"O.o.w [ ' b 2 T T 1 w.j.K.n V b 0 v I } W D.!.T.T.T.yXyX&X:X>X>X@X| B 8 0 Y ] v.7X}.7X0XE.*XI V 1 e ",
"O.o.w { / w 2 ~ T 6 r.h.n.n n 0 w b Y  .d.U.U.!.~.Z.%X3X+X^.D.:XT. .H 8 0 I / K.7X[.0XqXQ.-XZ V > 0 ",
"O. .w [ ~ 0 < ~ I 2 0.h.n.v v v w b P  .Z.c.s.Z.Z.g.F , Z.!.M.:X!.| H 3 0 Y / R.7X].8XqX[.5XZ V 1 0 ",
" . .b ' ~ w 2 ~ I 6 q.r.n.b v 0 0 v Y  .D.T.x.w.Z.Z.A.+X:X!.D.~.%X| Z 8 0 U / '.7XQ.8XqX[.7XV B % 0 ",
" .[ b ' U w 2 ' Z 7 r.r.M.b v v 0 b I o.m.~.x.x.m.~.~.&X%Xx.!.!.V { Z 4 0 T ~ [.7X].8XqX}.0XV M 1 0 ",
"o.[ w [ U w 2 ] U q e.r.;X`.v v 0 m V O.j.+Xm.c.m.D.) > >Xs.~.D.Z { P 8 w T T {.7XQ.0XqX}.7XP N % 8 ",
" .~ w ] U r 2 ] Z e r.r.i.C.+Xv 0 b H O.h.:.s.x.Z.x.S O &X!.~.Z.B [ P 7 0 T T {.6XQ.0XqX}.4XZ B < 4 ",
" .T b / I w < [ P e q.;X@X..@X;.0 b P O.h.m m.s.m.i.i.i.^ w.Z.w.n { Z 7 0 T '  X6X].8X0X}.4XI B < 8 ",
" .Z b ] Z 0 2 ] G w r.yXrX^ m.3Xb v P o.t.@ c.f.i.m.Q S ^ !.m.v N [ I 6 0 U }  X5XW.8XqX}.4X} n % 3 ",
"{ Z b ~ Z 0 < ] B e ;XeXyX) i.T.Y.d P X.N ; x.x.m.m.C.i.D.Z.M.w N [ Z 8 0 U @..X4XW.7XtX*X-X<.M < 2 ",
"{ N b ' Z 0 < ] Z c.>XsX&X! J C.@Xj - = ; ; d a.a.9.s.) a.C.a.w n ] U 2 e I <.=X1XW.7X0X{.-Xv.M 1 8 ",
"' N b U V 0 2 [ B @XeXwXT.9 Q f.yX*.o = = - = ( ..:.Q S W ..a.e n ' I 7 7 U v..X-XW.6X8X{.*XR.n + 2 ",
"[ w b ~ V 0 < [ Q `.eXc.p.A S S.sX#X& & @ ; ;   J W F M R ) dXd N ' I 2 4 I K. X=XR.6X8X{.*X].M 1 4 ",
"[ 4 n I V w < [ G D.&Xp.,.:.A.eXyX[.y & * @ = . '.F A J Q a.hX= N / Y 6 e Z P.=X*XR.5X7X{.}.{.F % 4 ",
"[ 7 b P B 0 2 ' d T.@Xi.:.C.*Xz.T.>.& * = * # o 1.`.;.J ( fXhX# x ` U 6 4 Z R..X}.R.4X4XR.[.*XM > 4 ",
"] 2 n I B w < ] E D...J ;.i.c.) ;.$.g y * # # o *..X=XS D fXfX% f x *.d 7 C W..X[.K.].X.v.].-Xn + 4 ",
"] < n V B 0 1 L s 1Xa.H R R ( L.%.$.s - = * o # o <X<Xc D R fX=.i x *.*.*.K '..XW.<.C t.P R.-XB + 7 ",
"~ < M V V 0 < y t <X( J F F >.@ $.z g .   o o * o <XW , d.&.hX_.a %.E $.%.*.L..XR.@.@.t.e v.-Xn + 4 ",
"U < M V B 0 5 y : >.R.Y ( i.R.. s l g t : o o # o B.B.>.D V.hX|.s E $.$.x x $.L.P.` ' ` 7 f =Xb + 6 ",
"U < M n B w ; : ; d R.|.F ..q   t g h l t * # o @ P.V.S D aX|.<Xj z %.$.x %.z $.=.Y N ' + C *XN + 1 ",
"U % b M Z e = * = q 1.6X`.2.  . t g l - p - = * @ P._.y.D iXfXaXl x %.z z x z l ; _ ` #.< 4 2.b + 1 ",
"I > m v H d = o # X _ v.2.q X   - p l j s : = * o V.|.D y.+XaXaXa x x i l l z l = E } #.+ O 8 w O 1 ",
"V 1 m m B t * X = X k v.f @ =   * p h $.h y ; = = a iX6.6.+XaXgXa x x x l l l l & L L F > O m 0 + 1 ",
"H 1 w b V * o . # o e =.q o o   * t g z y a y : ; : iXN.6.8.gXgXh z E *.h l j l o >.[.8 b O @.r + 1 ",
"M 1 0 b F . . # .   a E d   .   & = s l z g s i t ; 9X6./.8.rXjX# h l XXE j j h & =..XL + O t.w $ 1 ",
"M < 0 v ;     ;       _ f       . = t h $.z l s y - 6XD 7.N.H.kX# a l V.L.j h g . : |.v.@ O t.M $ > ",
"G < 0 0 *     lXlXOXlX; -.lX  lXOXlXlXlXlX5.  lXa lX3.lXoXlX2XlXlXlXlXi lX5.lXlX  lXa N 2 + h.B $ 1 ",
"M 1 8 0 .     lXlXlXlX; -.lX  lXlXlXlXlXlXlX  jXs lXlXlXoX  J.lXlXlX5.  lXlXlXlX  oXlX] Z < e.I + > ",
"K 1 9 0       lXkXlXlX; -.lX  lXlXlXlXlXlXlX. lXh lXlXlXoXlXJ.lXlXlXlX  lXlXlXlX  oXlX+.{ 3 #.Y $ 1 ",
"G < 8 r       OX  lXlX; -.lX  lXlXlXlXlXlXlX. gXh lXlXlXoX. (.lX*.lX5.  lXlXlXlX  oXlXK ~ > 0./ O 1 ",
"@ % 8 r       _.  lXlXo -.lX  lXlXlXlXlXlXlX. kXs lXlXlXoX3.,XlXlXlX4.  lXlXlXlX  oXlXF v O 0.#.$ % ",
"* * @ 9 8     5.  *.lX  lX    pXOXpXpXpXpX5.= pXs pXpXpX_.pXJ.pXlXpX3.  lX: = lX  pXt y 1 > +.j.+ + ",
"* * - = ; 5 O 1 X             . . & = = = & & . s s y S F.,XJ.gXkXp a a s p t t s u t g % 3 +.k.% @ ",
"= = * ; : : # C 1 e X.          . . * - - - & . s p y &.F.F.,XgXjXa p p i t _.5.3.g OXt ).4._ uX4.+ ",
"; ; * : * u o K % 7 {         . . & * * * - o . s p y A H.u.G.pXgXi p p t t t & - t t & - 5 X.j.% O "
};
